<?xml version="1.0" encoding="UTF-8"?>
<!-- 2021-07-10 10:22:12 Generated by QCAD 3.26.2 SVG Exporter -->
<svg width="104.5252mm" height="104.5252mm" viewBox="-52.2626 -52.2626 104.5252 104.5252" version="1.1" xmlns="http://www.w3.org/2000/svg" style="stroke-linecap:round;stroke-linejoin:round;fill:none">
    <g transform="scale(1,-1)">
        <!-- Circle -->
        <path d="M40,0.0387 L40,0.0387M39.9922,0.7887 L39.9922,0.7887M39.9704,1.5383 L39.9704,1.5383M39.9345,2.2875 L39.9345,2.2875M39.8846,3.0358 L39.8846,3.0358M39.8207,3.783 L39.8207,3.783M39.7428,4.529 L39.7428,4.529M39.6509,5.2733 L39.6509,5.2733M39.545,6.0158 L39.545,6.0158M39.4253,6.7562 L39.4253,6.7562M39.2917,7.4942 L39.2917,7.4942M39.1443,8.2295 L39.1443,8.2295M38.9831,8.962 L38.9831,8.962M38.8082,9.6913 L38.8082,9.6913M38.6197,10.4172 L38.6197,10.4172M38.4176,11.1395 L38.4176,11.1395M38.202,11.8578 L38.202,11.8578M37.973,12.5719 L37.973,12.5719M37.7306,13.2817 L37.7306,13.2817M37.4749,13.9868 L37.4749,13.9868M37.2061,14.6869 L37.2061,14.6869M36.9242,15.3819 L36.9242,15.3819M36.6293,16.0715 L36.6293,16.0715M36.3216,16.7554 L36.3216,16.7554M36.001,17.4335 L36.001,17.4335M35.6678,18.1054 L35.6678,18.1054M35.3221,18.7709 L35.3221,18.7709M34.964,19.4299 L34.964,19.4299M34.5935,20.082 L34.5935,20.082M34.2109,20.7271 L34.2109,20.7271M33.8163,21.3648 L33.8163,21.3648M33.4098,21.9951 L33.4098,21.9951M32.9916,22.6176 L32.9916,22.6176M32.5617,23.2322 L32.5617,23.2322M32.1204,23.8386 L32.1204,23.8386M31.6678,24.4367 L31.6678,24.4367M31.2041,25.0261 L31.2041,25.0261M30.7294,25.6067 L30.7294,25.6067M30.2439,26.1784 L30.2439,26.1784M29.7477,26.7408 L29.7477,26.7408M29.2412,27.2939 L29.2412,27.2939M28.7243,27.8373 L28.7243,27.8373M28.1973,28.371 L28.1973,28.371M27.6604,28.8946 L27.6604,28.8946M27.1138,29.4082 L27.1138,29.4082M26.5577,29.9113 L26.5577,29.9113M25.9922,30.404 L25.9922,30.404M25.4176,30.886 L25.4176,30.886M24.8341,31.3571 L24.8341,31.3571M24.2418,31.8172 L24.2418,31.8172M23.641,32.2661 L23.641,32.2661M23.0319,32.7037 L23.0319,32.7037M22.4147,33.1298 L22.4147,33.1298M21.7896,33.5442 L21.7896,33.5442M21.1568,33.9468 L21.1568,33.9468M20.5167,34.3375 L20.5167,34.3375M19.8693,34.7162 L19.8693,34.7162M19.2149,35.0826 L19.2149,35.0826M18.5537,35.4367 L18.5537,35.4367M17.8861,35.7783 L17.8861,35.7783M17.2121,36.1074 L17.2121,36.1074M16.5321,36.4237 L16.5321,36.4237M15.8463,36.7273 L15.8463,36.7273M15.1549,37.0179 L15.1549,37.0179M14.4582,37.2956 L14.4582,37.2956M13.7564,37.5601 L13.7564,37.5601M13.0498,37.8114 L13.0498,37.8114M12.3386,38.0494 L12.3386,38.0494M11.623,38.2741 L11.623,38.2741M10.9034,38.4853 L10.9034,38.4853M10.1799,38.6829 L10.1799,38.6829M9.4529,38.867 L9.4529,38.867M8.7225,39.0374 L8.7225,39.0374M7.9891,39.1941 L7.9891,39.1941M7.2528,39.337 L7.2528,39.337M6.514,39.466 L6.514,39.466M5.7729,39.5812 L5.7729,39.5812M5.0298,39.6825 L5.0298,39.6825M4.2849,39.7698 L4.2849,39.7698M3.5385,39.8432 L3.5385,39.8432M2.7909,39.9025 L2.7909,39.9025M2.0423,39.9478 L2.0423,39.9478M1.2929,39.9791 L1.2929,39.9791M0.5431,39.9963 L0.5431,39.9963M-0.2069,39.9995 L-0.2069,39.9995M-0.9568,39.9886 L-0.9568,39.9886M-1.7063,39.9636 L-1.7063,39.9636M-2.4553,39.9246 L-2.4553,39.9246M-3.2034,39.8715 L-3.2034,39.8715M-3.9504,39.8045 L-3.9504,39.8045M-4.696,39.7234 L-4.696,39.7234M-5.4399,39.6284 L-5.4399,39.6284M-6.182,39.5194 L-6.182,39.5194M-6.9218,39.3966 L-6.9218,39.3966M-7.6593,39.2598 L-7.6593,39.2598M-8.394,39.1093 L-8.394,39.1093M-9.1258,38.9451 L-9.1258,38.9451M-9.8543,38.7671 L-9.8543,38.7671M-10.5795,38.5756 L-10.5795,38.5756M-11.3008,38.3704 L-11.3008,38.3704M-12.0183,38.1518 L-12.0183,38.1518M-12.7315,37.9198 L-12.7315,37.9198M-13.4402,37.6744 L-13.4402,37.6744M-14.1442,37.4158 L-14.1442,37.4158M-14.8432,37.144 L-14.8432,37.144M-15.537,36.8592 L-15.537,36.8592M-16.2253,36.5614 L-16.2253,36.5614M-16.908,36.2508 L-16.908,36.2508M-17.5846,35.9274 L-17.5846,35.9274M-18.2552,35.5914 L-18.2552,35.5914M-18.9192,35.2429 L-18.9192,35.2429M-19.5767,34.882 L-19.5767,34.882M-20.2272,34.5088 L-20.2272,34.5088M-20.8707,34.1235 L-20.8707,34.1235M-21.5068,33.7262 L-21.5068,33.7262M-22.1354,33.3171 L-22.1354,33.3171M-22.7561,32.8962 L-22.7561,32.8962M-23.3689,32.4638 L-23.3689,32.4638M-23.9734,32.0199 L-23.9734,32.0199M-24.5696,31.5648 L-24.5696,31.5648M-25.157,31.0986 L-25.157,31.0986M-25.7357,30.6215 L-25.7357,30.6215M-26.3053,30.1336 L-26.3053,30.1336M-26.8656,29.6351 L-26.8656,29.6351M-27.4165,29.1262 L-27.4165,29.1262M-27.9578,28.607 L-27.9578,28.607M-28.4892,28.0778 L-28.4892,28.0778M-29.0107,27.5387 L-29.0107,27.5387M-29.5219,26.99 L-29.5219,26.99M-30.0227,26.4317 L-30.0227,26.4317M-30.513,25.8642 L-30.513,25.8642M-30.9926,25.2876 L-30.9926,25.2876M-31.4612,24.702 L-31.4612,24.702M-31.9188,24.1078 L-31.9188,24.1078M-32.3652,23.5051 L-32.3652,23.5051M-32.8002,22.8942 L-32.8002,22.8942M-33.2237,22.2752 L-33.2237,22.2752M-33.6355,21.6484 L-33.6355,21.6484M-34.0355,21.014 L-34.0355,21.014M-34.4235,20.3721 L-34.4235,20.3721M-34.7994,19.7231 L-34.7994,19.7231M-35.1631,19.0672 L-35.1631,19.0672M-35.5144,18.4046 L-35.5144,18.4046M-35.8532,17.7355 L-35.8532,17.7355M-36.1794,17.0602 L-36.1794,17.0602M-36.4929,16.3789 L-36.4929,16.3789M-36.7936,15.6918 L-36.7936,15.6918M-37.0813,14.9992 L-37.0813,14.9992M-37.356,14.3013 L-37.356,14.3013M-37.6176,13.5984 L-37.6176,13.5984M-37.8659,12.8907 L-37.8659,12.8907M-38.101,12.1785 L-38.101,12.1785M-38.3226,11.462 L-38.3226,11.462M-38.5308,10.7415 L-38.5308,10.7415M-38.7254,10.0172 L-38.7254,10.0172M-38.9064,9.2894 L-38.9064,9.2894M-39.0737,8.5583 L-39.0737,8.5583M-39.2273,7.8242 L-39.2273,7.8242M-39.3671,7.0874 L-39.3671,7.0874M-39.4931,6.348 L-39.4931,6.348M-39.6051,5.6065 L-39.6051,5.6065M-39.7033,4.8629 L-39.7033,4.8629M-39.7875,4.1177 L-39.7875,4.1177M-39.8577,3.371 L-39.8577,3.371M-39.9139,2.6231 L-39.9139,2.6231M-39.9561,1.8743 L-39.9561,1.8743M-39.9842,1.1249 L-39.9842,1.1249M-39.9982,0.375 L-39.9982,0.375M-39.9982,-0.375 L-39.9982,-0.375M-39.9842,-1.1249 L-39.9842,-1.1249M-39.9561,-1.8743 L-39.9561,-1.8743M-39.9139,-2.6231 L-39.9139,-2.6231M-39.8577,-3.371 L-39.8577,-3.371M-39.7875,-4.1177 L-39.7875,-4.1177M-39.7033,-4.8629 L-39.7033,-4.8629M-39.6051,-5.6065 L-39.6051,-5.6065M-39.4931,-6.348 L-39.4931,-6.348M-39.3671,-7.0874 L-39.3671,-7.0874M-39.2273,-7.8242 L-39.2273,-7.8242M-39.0737,-8.5583 L-39.0737,-8.5583M-38.9064,-9.2894 L-38.9064,-9.2894M-38.7254,-10.0172 L-38.7254,-10.0172M-38.5308,-10.7415 L-38.5308,-10.7415M-38.3226,-11.462 L-38.3226,-11.462M-38.101,-12.1785 L-38.101,-12.1785M-37.8659,-12.8907 L-37.8659,-12.8907M-37.6176,-13.5984 L-37.6176,-13.5984M-37.356,-14.3013 L-37.356,-14.3013M-37.0813,-14.9992 L-37.0813,-14.9992M-36.7936,-15.6918 L-36.7936,-15.6918M-36.4929,-16.3789 L-36.4929,-16.3789M-36.1794,-17.0602 L-36.1794,-17.0602M-35.8532,-17.7355 L-35.8532,-17.7355M-35.5144,-18.4046 L-35.5144,-18.4046M-35.1631,-19.0672 L-35.1631,-19.0672M-34.7994,-19.7231 L-34.7994,-19.7231M-34.4235,-20.3721 L-34.4235,-20.3721M-34.0355,-21.014 L-34.0355,-21.014M-33.6355,-21.6484 L-33.6355,-21.6484M-33.2237,-22.2752 L-33.2237,-22.2752M-32.8002,-22.8942 L-32.8002,-22.8942M-32.3652,-23.5051 L-32.3652,-23.5051M-31.9188,-24.1078 L-31.9188,-24.1078M-31.4612,-24.702 L-31.4612,-24.702M-30.9926,-25.2876 L-30.9926,-25.2876M-30.513,-25.8642 L-30.513,-25.8642M-30.0227,-26.4317 L-30.0227,-26.4317M-29.5219,-26.99 L-29.5219,-26.99M-29.0107,-27.5387 L-29.0107,-27.5387M-28.4892,-28.0778 L-28.4892,-28.0778M-27.9578,-28.607 L-27.9578,-28.607M-27.4165,-29.1262 L-27.4165,-29.1262M-26.8656,-29.6351 L-26.8656,-29.6351M-26.3053,-30.1336 L-26.3053,-30.1336M-25.7357,-30.6215 L-25.7357,-30.6215M-25.157,-31.0986 L-25.157,-31.0986M-24.5696,-31.5648 L-24.5696,-31.5648M-23.9734,-32.0199 L-23.9734,-32.0199M-23.3689,-32.4638 L-23.3689,-32.4638M-22.7561,-32.8962 L-22.7561,-32.8962M-22.1354,-33.3171 L-22.1354,-33.3171M-21.5068,-33.7262 L-21.5068,-33.7262M-20.8707,-34.1235 L-20.8707,-34.1235M-20.2272,-34.5088 L-20.2272,-34.5088M-19.5767,-34.882 L-19.5767,-34.882M-18.9192,-35.2429 L-18.9192,-35.2429M-18.2552,-35.5914 L-18.2552,-35.5914M-17.5846,-35.9274 L-17.5846,-35.9274M-16.908,-36.2508 L-16.908,-36.2508M-16.2253,-36.5614 L-16.2253,-36.5614M-15.537,-36.8592 L-15.537,-36.8592M-14.8432,-37.144 L-14.8432,-37.144M-14.1442,-37.4158 L-14.1442,-37.4158M-13.4402,-37.6744 L-13.4402,-37.6744M-12.7315,-37.9198 L-12.7315,-37.9198M-12.0183,-38.1518 L-12.0183,-38.1518M-11.3008,-38.3704 L-11.3008,-38.3704M-10.5795,-38.5756 L-10.5795,-38.5756M-9.8543,-38.7671 L-9.8543,-38.7671M-9.1258,-38.9451 L-9.1258,-38.9451M-8.394,-39.1093 L-8.394,-39.1093M-7.6593,-39.2598 L-7.6593,-39.2598M-6.9218,-39.3966 L-6.9218,-39.3966M-6.182,-39.5194 L-6.182,-39.5194M-5.4399,-39.6284 L-5.4399,-39.6284M-4.696,-39.7234 L-4.696,-39.7234M-3.9504,-39.8045 L-3.9504,-39.8045M-3.2034,-39.8715 L-3.2034,-39.8715M-2.4553,-39.9246 L-2.4553,-39.9246M-1.7063,-39.9636 L-1.7063,-39.9636M-0.9568,-39.9886 L-0.9568,-39.9886M-0.2069,-39.9995 L-0.2069,-39.9995M0.5431,-39.9963 L0.5431,-39.9963M1.2929,-39.9791 L1.2929,-39.9791M2.0423,-39.9478 L2.0423,-39.9478M2.7909,-39.9025 L2.7909,-39.9025M3.5385,-39.8432 L3.5385,-39.8432M4.2849,-39.7698 L4.2849,-39.7698M5.0298,-39.6825 L5.0298,-39.6825M5.7729,-39.5812 L5.7729,-39.5812M6.514,-39.466 L6.514,-39.466M7.2528,-39.337 L7.2528,-39.337M7.9891,-39.1941 L7.9891,-39.1941M8.7225,-39.0374 L8.7225,-39.0374M9.4529,-38.867 L9.4529,-38.867M10.1799,-38.6829 L10.1799,-38.6829M10.9034,-38.4853 L10.9034,-38.4853M11.623,-38.2741 L11.623,-38.2741M12.3386,-38.0494 L12.3386,-38.0494M13.0498,-37.8114 L13.0498,-37.8114M13.7564,-37.5601 L13.7564,-37.5601M14.4582,-37.2956 L14.4582,-37.2956M15.1549,-37.0179 L15.1549,-37.0179M15.8463,-36.7273 L15.8463,-36.7273M16.5321,-36.4237 L16.5321,-36.4237M17.2121,-36.1074 L17.2121,-36.1074M17.8861,-35.7783 L17.8861,-35.7783M18.5537,-35.4367 L18.5537,-35.4367M19.2149,-35.0826 L19.2149,-35.0826M19.8693,-34.7162 L19.8693,-34.7162M20.5167,-34.3375 L20.5167,-34.3375M21.1568,-33.9468 L21.1568,-33.9468M21.7896,-33.5442 L21.7896,-33.5442M22.4147,-33.1298 L22.4147,-33.1298M23.0319,-32.7037 L23.0319,-32.7037M23.641,-32.2661 L23.641,-32.2661M24.2418,-31.8172 L24.2418,-31.8172M24.8341,-31.3571 L24.8341,-31.3571M25.4176,-30.886 L25.4176,-30.886M25.9922,-30.404 L25.9922,-30.404M26.5577,-29.9113 L26.5577,-29.9113M27.1138,-29.4082 L27.1138,-29.4082M27.6604,-28.8946 L27.6604,-28.8946M28.1973,-28.371 L28.1973,-28.371M28.7243,-27.8373 L28.7243,-27.8373M29.2412,-27.2939 L29.2412,-27.2939M29.7477,-26.7408 L29.7477,-26.7408M30.2439,-26.1784 L30.2439,-26.1784M30.7294,-25.6067 L30.7294,-25.6067M31.2041,-25.0261 L31.2041,-25.0261M31.6678,-24.4367 L31.6678,-24.4367M32.1204,-23.8386 L32.1204,-23.8386M32.5617,-23.2322 L32.5617,-23.2322M32.9916,-22.6176 L32.9916,-22.6176M33.4098,-21.9951 L33.4098,-21.9951M33.8163,-21.3648 L33.8163,-21.3648M34.2109,-20.7271 L34.2109,-20.7271M34.5935,-20.082 L34.5935,-20.082M34.964,-19.4299 L34.964,-19.4299M35.3221,-18.7709 L35.3221,-18.7709M35.6678,-18.1054 L35.6678,-18.1054M36.001,-17.4335 L36.001,-17.4335M36.3216,-16.7554 L36.3216,-16.7554M36.6293,-16.0715 L36.6293,-16.0715M36.9242,-15.3819 L36.9242,-15.3819M37.2061,-14.6869 L37.2061,-14.6869M37.4749,-13.9868 L37.4749,-13.9868M37.7306,-13.2817 L37.7306,-13.2817M37.973,-12.5719 L37.973,-12.5719M38.202,-11.8578 L38.202,-11.8578M38.4176,-11.1395 L38.4176,-11.1395M38.6197,-10.4172 L38.6197,-10.4172M38.8082,-9.6913 L38.8082,-9.6913M38.9831,-8.962 L38.9831,-8.962M39.1443,-8.2295 L39.1443,-8.2295M39.2917,-7.4942 L39.2917,-7.4942M39.4253,-6.7562 L39.4253,-6.7562M39.545,-6.0158 L39.545,-6.0158M39.6509,-5.2733 L39.6509,-5.2733M39.7428,-4.529 L39.7428,-4.529M39.8207,-3.783 L39.8207,-3.783M39.8846,-3.0358 L39.8846,-3.0358M39.9345,-2.2875 L39.9345,-2.2875M39.9704,-1.5383 L39.9704,-1.5383M39.9922,-0.7887 L39.9922,-0.7887M40,-0.0387 L40,-0.0387" style="stroke:#000000;stroke-width:0.25;"/>
        <!-- Line -->
        <path d="M36.7242,-15.2117 L36.7242,-15.2117 M36.0313,-14.9247 L36.0313,-14.9247 M35.3384,-14.6376 L35.3384,-14.6376 M34.6455,-14.3506 L34.6455,-14.3506 M33.9526,-14.0636 L33.9526,-14.0636 M33.2597,-13.7766 L33.2597,-13.7766 M32.5668,-13.4896 L32.5668,-13.4896 M31.8738,-13.2026 L31.8738,-13.2026 M31.1809,-12.9156 L31.1809,-12.9156 M30.488,-12.6286 L30.488,-12.6286 M29.7951,-12.3415 L29.7951,-12.3415 M29.1022,-12.0545 L29.1022,-12.0545 M28.4093,-11.7675 L28.4093,-11.7675 M27.7164,-11.4805 L27.7164,-11.4805 M27.0235,-11.1935 L27.0235,-11.1935 M26.3306,-10.9065 L26.3306,-10.9065 M25.6377,-10.6195 L25.6377,-10.6195 M24.9447,-10.3325 L24.9447,-10.3325 M24.2518,-10.0454 L24.2518,-10.0454 M23.5589,-9.7584 L23.5589,-9.7584 M22.866,-9.4714 L22.866,-9.4714 M22.1731,-9.1844 L22.1731,-9.1844 M21.4802,-8.8974 L21.4802,-8.8974 M20.7873,-8.6104 L20.7873,-8.6104 M20.0944,-8.3234 L20.0944,-8.3234 M19.4015,-8.0364 L19.4015,-8.0364 M18.7086,-7.7493 L18.7086,-7.7493 M18.0157,-7.4623 L18.0157,-7.4623 M17.3227,-7.1753 L17.3227,-7.1753 M16.6298,-6.8883 L16.6298,-6.8883 M15.9369,-6.6013 L15.9369,-6.6013 M15.244,-6.3143 L15.244,-6.3143 M14.5511,-6.0273 L14.5511,-6.0273 M13.8582,-5.7403 L13.8582,-5.7403 M13.1653,-5.4532 L13.1653,-5.4532 M12.4724,-5.1662 L12.4724,-5.1662 M11.7795,-4.8792 L11.7795,-4.8792 M11.0866,-4.5922 L11.0866,-4.5922 M10.3936,-4.3052 L10.3936,-4.3052 M9.7007,-4.0182 L9.7007,-4.0182 M9.0078,-3.7312 L9.0078,-3.7312 M8.3149,-3.4442 L8.3149,-3.4442 M7.622,-3.1571 L7.622,-3.1571 M6.9291,-2.8701 L6.9291,-2.8701 M6.2362,-2.5831 L6.2362,-2.5831 M5.5433,-2.2961 L5.5433,-2.2961 M4.8504,-2.0091 L4.8504,-2.0091 M4.1575,-1.7221 L4.1575,-1.7221 M3.4645,-1.4351 L3.4645,-1.4351 M2.7716,-1.1481 L2.7716,-1.1481 M2.0787,-0.861 L2.0787,-0.861 M1.3858,-0.574 L1.3858,-0.574 M0.6929,-0.287 L0.6929,-0.287 M0,0 L0,0 M-0.6929,0.287 L-0.6929,0.287 M-1.3858,0.574 L-1.3858,0.574 M-2.0787,0.861 L-2.0787,0.861 M-2.7716,1.1481 L-2.7716,1.1481 M-3.4645,1.4351 L-3.4645,1.4351 M-4.1575,1.7221 L-4.1575,1.7221 M-4.8504,2.0091 L-4.8504,2.0091 M-5.5433,2.2961 L-5.5433,2.2961 M-6.2362,2.5831 L-6.2362,2.5831 M-6.9291,2.8701 L-6.9291,2.8701 M-7.622,3.1571 L-7.622,3.1571 M-8.3149,3.4442 L-8.3149,3.4442 M-9.0078,3.7312 L-9.0078,3.7312 M-9.7007,4.0182 L-9.7007,4.0182 M-10.3936,4.3052 L-10.3936,4.3052 M-11.0866,4.5922 L-11.0866,4.5922 M-11.7795,4.8792 L-11.7795,4.8792 M-12.4724,5.1662 L-12.4724,5.1662 M-13.1653,5.4532 L-13.1653,5.4532 M-13.8582,5.7403 L-13.8582,5.7403 M-14.5511,6.0273 L-14.5511,6.0273 M-15.244,6.3143 L-15.244,6.3143 M-15.9369,6.6013 L-15.9369,6.6013 M-16.6298,6.8883 L-16.6298,6.8883 M-17.3227,7.1753 L-17.3227,7.1753 M-18.0157,7.4623 L-18.0157,7.4623 M-18.7086,7.7493 L-18.7086,7.7493 M-19.4015,8.0364 L-19.4015,8.0364 M-20.0944,8.3234 L-20.0944,8.3234 M-20.7873,8.6104 L-20.7873,8.6104 M-21.4802,8.8974 L-21.4802,8.8974 M-22.1731,9.1844 L-22.1731,9.1844 M-22.866,9.4714 L-22.866,9.4714 M-23.5589,9.7584 L-23.5589,9.7584 M-24.2518,10.0454 L-24.2518,10.0454 M-24.9447,10.3325 L-24.9447,10.3325 M-25.6377,10.6195 L-25.6377,10.6195 M-26.3306,10.9065 L-26.3306,10.9065 M-27.0235,11.1935 L-27.0235,11.1935 M-27.7164,11.4805 L-27.7164,11.4805 M-28.4093,11.7675 L-28.4093,11.7675 M-29.1022,12.0545 L-29.1022,12.0545 M-29.7951,12.3415 L-29.7951,12.3415 M-30.488,12.6286 L-30.488,12.6286 M-31.1809,12.9156 L-31.1809,12.9156 M-31.8738,13.2026 L-31.8738,13.2026 M-32.5668,13.4896 L-32.5668,13.4896 M-33.2597,13.7766 L-33.2597,13.7766 M-33.9526,14.0636 L-33.9526,14.0636 M-34.6455,14.3506 L-34.6455,14.3506 M-35.3384,14.6376 L-35.3384,14.6376 M-36.0313,14.9247 L-36.0313,14.9247 M-36.7242,15.2117 L-36.7242,15.2117 " style="stroke:#000000;stroke-width:0.25;"/>
        <!-- Line -->
        <path d="M15.2117,36.7242 L15.2117,36.7242 M14.9247,36.0313 L14.9247,36.0313 M14.6376,35.3384 L14.6376,35.3384 M14.3506,34.6455 L14.3506,34.6455 M14.0636,33.9526 L14.0636,33.9526 M13.7766,33.2597 L13.7766,33.2597 M13.4896,32.5668 L13.4896,32.5668 M13.2026,31.8738 L13.2026,31.8738 M12.9156,31.1809 L12.9156,31.1809 M12.6286,30.488 L12.6286,30.488 M12.3415,29.7951 L12.3415,29.7951 M12.0545,29.1022 L12.0545,29.1022 M11.7675,28.4093 L11.7675,28.4093 M11.4805,27.7164 L11.4805,27.7164 M11.1935,27.0235 L11.1935,27.0235 M10.9065,26.3306 L10.9065,26.3306 M10.6195,25.6377 L10.6195,25.6377 M10.3325,24.9447 L10.3325,24.9447 M10.0454,24.2518 L10.0454,24.2518 M9.7584,23.5589 L9.7584,23.5589 M9.4714,22.866 L9.4714,22.866 M9.1844,22.1731 L9.1844,22.1731 M8.8974,21.4802 L8.8974,21.4802 M8.6104,20.7873 L8.6104,20.7873 M8.3234,20.0944 L8.3234,20.0944 M8.0364,19.4015 L8.0364,19.4015 M7.7493,18.7086 L7.7493,18.7086 M7.4623,18.0157 L7.4623,18.0157 M7.1753,17.3227 L7.1753,17.3227 M6.8883,16.6298 L6.8883,16.6298 M6.6013,15.9369 L6.6013,15.9369 M6.3143,15.244 L6.3143,15.244 M6.0273,14.5511 L6.0273,14.5511 M5.7403,13.8582 L5.7403,13.8582 M5.4532,13.1653 L5.4532,13.1653 M5.1662,12.4724 L5.1662,12.4724 M4.8792,11.7795 L4.8792,11.7795 M4.5922,11.0866 L4.5922,11.0866 M4.3052,10.3936 L4.3052,10.3936 M4.0182,9.7007 L4.0182,9.7007 M3.7312,9.0078 L3.7312,9.0078 M3.4442,8.3149 L3.4442,8.3149 M3.1571,7.622 L3.1571,7.622 M2.8701,6.9291 L2.8701,6.9291 M2.5831,6.2362 L2.5831,6.2362 M2.2961,5.5433 L2.2961,5.5433 M2.0091,4.8504 L2.0091,4.8504 M1.7221,4.1575 L1.7221,4.1575 M1.4351,3.4645 L1.4351,3.4645 M1.1481,2.7716 L1.1481,2.7716 M0.861,2.0787 L0.861,2.0787 M0.574,1.3858 L0.574,1.3858 M0.287,0.6929 L0.287,0.6929 M0,0 L0,0 M-0.287,-0.6929 L-0.287,-0.6929 M-0.574,-1.3858 L-0.574,-1.3858 M-0.861,-2.0787 L-0.861,-2.0787 M-1.1481,-2.7716 L-1.1481,-2.7716 M-1.4351,-3.4645 L-1.4351,-3.4645 M-1.7221,-4.1575 L-1.7221,-4.1575 M-2.0091,-4.8504 L-2.0091,-4.8504 M-2.2961,-5.5433 L-2.2961,-5.5433 M-2.5831,-6.2362 L-2.5831,-6.2362 M-2.8701,-6.9291 L-2.8701,-6.9291 M-3.1571,-7.622 L-3.1571,-7.622 M-3.4442,-8.3149 L-3.4442,-8.3149 M-3.7312,-9.0078 L-3.7312,-9.0078 M-4.0182,-9.7007 L-4.0182,-9.7007 M-4.3052,-10.3936 L-4.3052,-10.3936 M-4.5922,-11.0866 L-4.5922,-11.0866 M-4.8792,-11.7795 L-4.8792,-11.7795 M-5.1662,-12.4724 L-5.1662,-12.4724 M-5.4532,-13.1653 L-5.4532,-13.1653 M-5.7403,-13.8582 L-5.7403,-13.8582 M-6.0273,-14.5511 L-6.0273,-14.5511 M-6.3143,-15.244 L-6.3143,-15.244 M-6.6013,-15.9369 L-6.6013,-15.9369 M-6.8883,-16.6298 L-6.8883,-16.6298 M-7.1753,-17.3227 L-7.1753,-17.3227 M-7.4623,-18.0157 L-7.4623,-18.0157 M-7.7493,-18.7086 L-7.7493,-18.7086 M-8.0364,-19.4015 L-8.0364,-19.4015 M-8.3234,-20.0944 L-8.3234,-20.0944 M-8.6104,-20.7873 L-8.6104,-20.7873 M-8.8974,-21.4802 L-8.8974,-21.4802 M-9.1844,-22.1731 L-9.1844,-22.1731 M-9.4714,-22.866 L-9.4714,-22.866 M-9.7584,-23.5589 L-9.7584,-23.5589 M-10.0454,-24.2518 L-10.0454,-24.2518 M-10.3325,-24.9447 L-10.3325,-24.9447 M-10.6195,-25.6377 L-10.6195,-25.6377 M-10.9065,-26.3306 L-10.9065,-26.3306 M-11.1935,-27.0235 L-11.1935,-27.0235 M-11.4805,-27.7164 L-11.4805,-27.7164 M-11.7675,-28.4093 L-11.7675,-28.4093 M-12.0545,-29.1022 L-12.0545,-29.1022 M-12.3415,-29.7951 L-12.3415,-29.7951 M-12.6286,-30.488 L-12.6286,-30.488 M-12.9156,-31.1809 L-12.9156,-31.1809 M-13.2026,-31.8738 L-13.2026,-31.8738 M-13.4896,-32.5668 L-13.4896,-32.5668 M-13.7766,-33.2597 L-13.7766,-33.2597 M-14.0636,-33.9526 L-14.0636,-33.9526 M-14.3506,-34.6455 L-14.3506,-34.6455 M-14.6376,-35.3384 L-14.6376,-35.3384 M-14.9247,-36.0313 L-14.9247,-36.0313 M-15.2117,-36.7242 L-15.2117,-36.7242 " style="stroke:#000000;stroke-width:0.25;"/>
        <!-- Line -->
        <path d="M-0.0478,0.1155 L-0.0478,0.1155 M-0.3348,0.8084 L-0.3348,0.8084 M-0.6219,1.5013 L-0.6219,1.5013 M-0.9089,2.1942 L-0.9089,2.1942 M-1.1959,2.8871 L-1.1959,2.8871 M-1.4829,3.58 L-1.4829,3.58 M-1.7699,4.2729 L-1.7699,4.2729 M-2.0569,4.9659 L-2.0569,4.9659 M-2.3439,5.6588 L-2.3439,5.6588 M-2.6309,6.3517 L-2.6309,6.3517 M-2.918,7.0446 L-2.918,7.0446 M-3.205,7.7375 L-3.205,7.7375 M-3.492,8.4304 L-3.492,8.4304 M-3.779,9.1233 L-3.779,9.1233 M-4.066,9.8162 L-4.066,9.8162 M-4.353,10.5091 L-4.353,10.5091 M-4.64,11.202 L-4.64,11.202 M-4.927,11.8949 L-4.927,11.8949 M-5.2141,12.5879 L-5.2141,12.5879 M-5.5011,13.2808 L-5.5011,13.2808 M-5.7881,13.9737 L-5.7881,13.9737 M-6.0751,14.6666 L-6.0751,14.6666 M-6.3621,15.3595 L-6.3621,15.3595 M-6.6491,16.0524 L-6.6491,16.0524 M-6.9361,16.7453 L-6.9361,16.7453 M-7.2231,17.4382 L-7.2231,17.4382 M-7.5102,18.1311 L-7.5102,18.1311 M-7.7972,18.824 L-7.7972,18.824 M-8.0842,19.517 L-8.0842,19.517 M-8.3712,20.2099 L-8.3712,20.2099 M-8.6582,20.9028 L-8.6582,20.9028 M-8.9452,21.5957 L-8.9452,21.5957 M-9.2322,22.2886 L-9.2322,22.2886 M-9.5193,22.9815 L-9.5193,22.9815 M-9.8063,23.6744 L-9.8063,23.6744 M-10.0933,24.3673 L-10.0933,24.3673 M-10.3803,25.0602 L-10.3803,25.0602 M-10.6673,25.7531 L-10.6673,25.7531 M-10.9543,26.4461 L-10.9543,26.4461 M-11.2413,27.139 L-11.2413,27.139 M-11.5283,27.8319 L-11.5283,27.8319 M-11.8154,28.5248 L-11.8154,28.5248 M-12.1024,29.2177 L-12.1024,29.2177 M-12.3894,29.9106 L-12.3894,29.9106 M-12.6764,30.6035 L-12.6764,30.6035 M-12.9634,31.2964 L-12.9634,31.2964 M-13.2504,31.9893 L-13.2504,31.9893 M-13.5374,32.6822 L-13.5374,32.6822 M-13.8244,33.3751 L-13.8244,33.3751 M-14.1115,34.0681 L-14.1115,34.0681 M-14.3985,34.761 L-14.3985,34.761 M-14.6855,35.4539 L-14.6855,35.4539 M-14.9725,36.1468 L-14.9725,36.1468 M-15.2595,36.8397 L-15.2595,36.8397 " style="stroke:#000000;stroke-width:0.25;"/>
        <!-- Line -->
        <path d="M-36.7242,-15.2117 L-36.7242,-15.2117 M-36.0313,-14.9247 L-36.0313,-14.9247 M-35.3384,-14.6376 L-35.3384,-14.6376 M-34.6455,-14.3506 L-34.6455,-14.3506 M-33.9526,-14.0636 L-33.9526,-14.0636 M-33.2597,-13.7766 L-33.2597,-13.7766 M-32.5668,-13.4896 L-32.5668,-13.4896 M-31.8738,-13.2026 L-31.8738,-13.2026 M-31.1809,-12.9156 L-31.1809,-12.9156 M-30.488,-12.6286 L-30.488,-12.6286 M-29.7951,-12.3415 L-29.7951,-12.3415 M-29.1022,-12.0545 L-29.1022,-12.0545 M-28.4093,-11.7675 L-28.4093,-11.7675 M-27.7164,-11.4805 L-27.7164,-11.4805 M-27.0235,-11.1935 L-27.0235,-11.1935 M-26.3306,-10.9065 L-26.3306,-10.9065 M-25.6377,-10.6195 L-25.6377,-10.6195 M-24.9447,-10.3325 L-24.9447,-10.3325 M-24.2518,-10.0454 L-24.2518,-10.0454 M-23.5589,-9.7584 L-23.5589,-9.7584 M-22.866,-9.4714 L-22.866,-9.4714 M-22.1731,-9.1844 L-22.1731,-9.1844 M-21.4802,-8.8974 L-21.4802,-8.8974 M-20.7873,-8.6104 L-20.7873,-8.6104 M-20.0944,-8.3234 L-20.0944,-8.3234 M-19.4015,-8.0364 L-19.4015,-8.0364 M-18.7086,-7.7493 L-18.7086,-7.7493 M-18.0157,-7.4623 L-18.0157,-7.4623 M-17.3227,-7.1753 L-17.3227,-7.1753 M-16.6298,-6.8883 L-16.6298,-6.8883 M-15.9369,-6.6013 L-15.9369,-6.6013 M-15.244,-6.3143 L-15.244,-6.3143 M-14.5511,-6.0273 L-14.5511,-6.0273 M-13.8582,-5.7403 L-13.8582,-5.7403 M-13.1653,-5.4532 L-13.1653,-5.4532 M-12.4724,-5.1662 L-12.4724,-5.1662 M-11.7795,-4.8792 L-11.7795,-4.8792 M-11.0866,-4.5922 L-11.0866,-4.5922 M-10.3936,-4.3052 L-10.3936,-4.3052 M-9.7007,-4.0182 L-9.7007,-4.0182 M-9.0078,-3.7312 L-9.0078,-3.7312 M-8.3149,-3.4442 L-8.3149,-3.4442 M-7.622,-3.1571 L-7.622,-3.1571 M-6.9291,-2.8701 L-6.9291,-2.8701 M-6.2362,-2.5831 L-6.2362,-2.5831 M-5.5433,-2.2961 L-5.5433,-2.2961 M-4.8504,-2.0091 L-4.8504,-2.0091 M-4.1575,-1.7221 L-4.1575,-1.7221 M-3.4645,-1.4351 L-3.4645,-1.4351 M-2.7716,-1.1481 L-2.7716,-1.1481 M-2.0787,-0.861 L-2.0787,-0.861 M-1.3858,-0.574 L-1.3858,-0.574 M-0.6929,-0.287 L-0.6929,-0.287 M0,0 L0,0 M0.6929,0.287 L0.6929,0.287 M1.3858,0.574 L1.3858,0.574 M2.0787,0.861 L2.0787,0.861 M2.7716,1.1481 L2.7716,1.1481 M3.4645,1.4351 L3.4645,1.4351 M4.1575,1.7221 L4.1575,1.7221 M4.8504,2.0091 L4.8504,2.0091 M5.5433,2.2961 L5.5433,2.2961 M6.2362,2.5831 L6.2362,2.5831 M6.9291,2.8701 L6.9291,2.8701 M7.622,3.1571 L7.622,3.1571 M8.3149,3.4442 L8.3149,3.4442 M9.0078,3.7312 L9.0078,3.7312 M9.7007,4.0182 L9.7007,4.0182 M10.3936,4.3052 L10.3936,4.3052 M11.0866,4.5922 L11.0866,4.5922 M11.7795,4.8792 L11.7795,4.8792 M12.4724,5.1662 L12.4724,5.1662 M13.1653,5.4532 L13.1653,5.4532 M13.8582,5.7403 L13.8582,5.7403 M14.5511,6.0273 L14.5511,6.0273 M15.244,6.3143 L15.244,6.3143 M15.9369,6.6013 L15.9369,6.6013 M16.6298,6.8883 L16.6298,6.8883 M17.3227,7.1753 L17.3227,7.1753 M18.0157,7.4623 L18.0157,7.4623 M18.7086,7.7493 L18.7086,7.7493 M19.4015,8.0364 L19.4015,8.0364 M20.0944,8.3234 L20.0944,8.3234 M20.7873,8.6104 L20.7873,8.6104 M21.4802,8.8974 L21.4802,8.8974 M22.1731,9.1844 L22.1731,9.1844 M22.866,9.4714 L22.866,9.4714 M23.5589,9.7584 L23.5589,9.7584 M24.2518,10.0454 L24.2518,10.0454 M24.9447,10.3325 L24.9447,10.3325 M25.6377,10.6195 L25.6377,10.6195 M26.3306,10.9065 L26.3306,10.9065 M27.0235,11.1935 L27.0235,11.1935 M27.7164,11.4805 L27.7164,11.4805 M28.4093,11.7675 L28.4093,11.7675 M29.1022,12.0545 L29.1022,12.0545 M29.7951,12.3415 L29.7951,12.3415 M30.488,12.6286 L30.488,12.6286 M31.1809,12.9156 L31.1809,12.9156 M31.8738,13.2026 L31.8738,13.2026 M32.5668,13.4896 L32.5668,13.4896 M33.2597,13.7766 L33.2597,13.7766 M33.9526,14.0636 L33.9526,14.0636 M34.6455,14.3506 L34.6455,14.3506 M35.3384,14.6376 L35.3384,14.6376 M36.0313,14.9247 L36.0313,14.9247 M36.7242,15.2117 L36.7242,15.2117 " style="stroke:#000000;stroke-width:0.25;"/>
        <!-- Line -->
        <path d="M-15.2117,36.7242 L-15.2117,36.7242 M-14.9247,36.0313 L-14.9247,36.0313 M-14.6376,35.3384 L-14.6376,35.3384 M-14.3506,34.6455 L-14.3506,34.6455 M-14.0636,33.9526 L-14.0636,33.9526 M-13.7766,33.2597 L-13.7766,33.2597 M-13.4896,32.5668 L-13.4896,32.5668 M-13.2026,31.8738 L-13.2026,31.8738 M-12.9156,31.1809 L-12.9156,31.1809 M-12.6286,30.488 L-12.6286,30.488 M-12.3415,29.7951 L-12.3415,29.7951 M-12.0545,29.1022 L-12.0545,29.1022 M-11.7675,28.4093 L-11.7675,28.4093 M-11.4805,27.7164 L-11.4805,27.7164 M-11.1935,27.0235 L-11.1935,27.0235 M-10.9065,26.3306 L-10.9065,26.3306 M-10.6195,25.6377 L-10.6195,25.6377 M-10.3325,24.9447 L-10.3325,24.9447 M-10.0454,24.2518 L-10.0454,24.2518 M-9.7584,23.5589 L-9.7584,23.5589 M-9.4714,22.866 L-9.4714,22.866 M-9.1844,22.1731 L-9.1844,22.1731 M-8.8974,21.4802 L-8.8974,21.4802 M-8.6104,20.7873 L-8.6104,20.7873 M-8.3234,20.0944 L-8.3234,20.0944 M-8.0364,19.4015 L-8.0364,19.4015 M-7.7493,18.7086 L-7.7493,18.7086 M-7.4623,18.0157 L-7.4623,18.0157 M-7.1753,17.3227 L-7.1753,17.3227 M-6.8883,16.6298 L-6.8883,16.6298 M-6.6013,15.9369 L-6.6013,15.9369 M-6.3143,15.244 L-6.3143,15.244 M-6.0273,14.5511 L-6.0273,14.5511 M-5.7403,13.8582 L-5.7403,13.8582 M-5.4532,13.1653 L-5.4532,13.1653 M-5.1662,12.4724 L-5.1662,12.4724 M-4.8792,11.7795 L-4.8792,11.7795 M-4.5922,11.0866 L-4.5922,11.0866 M-4.3052,10.3936 L-4.3052,10.3936 M-4.0182,9.7007 L-4.0182,9.7007 M-3.7312,9.0078 L-3.7312,9.0078 M-3.4442,8.3149 L-3.4442,8.3149 M-3.1571,7.622 L-3.1571,7.622 M-2.8701,6.9291 L-2.8701,6.9291 M-2.5831,6.2362 L-2.5831,6.2362 M-2.2961,5.5433 L-2.2961,5.5433 M-2.0091,4.8504 L-2.0091,4.8504 M-1.7221,4.1575 L-1.7221,4.1575 M-1.4351,3.4645 L-1.4351,3.4645 M-1.1481,2.7716 L-1.1481,2.7716 M-0.861,2.0787 L-0.861,2.0787 M-0.574,1.3858 L-0.574,1.3858 M-0.287,0.6929 L-0.287,0.6929 M0,0 L0,0 M0.287,-0.6929 L0.287,-0.6929 M0.574,-1.3858 L0.574,-1.3858 M0.861,-2.0787 L0.861,-2.0787 M1.1481,-2.7716 L1.1481,-2.7716 M1.4351,-3.4645 L1.4351,-3.4645 M1.7221,-4.1575 L1.7221,-4.1575 M2.0091,-4.8504 L2.0091,-4.8504 M2.2961,-5.5433 L2.2961,-5.5433 M2.5831,-6.2362 L2.5831,-6.2362 M2.8701,-6.9291 L2.8701,-6.9291 M3.1571,-7.622 L3.1571,-7.622 M3.4442,-8.3149 L3.4442,-8.3149 M3.7312,-9.0078 L3.7312,-9.0078 M4.0182,-9.7007 L4.0182,-9.7007 M4.3052,-10.3936 L4.3052,-10.3936 M4.5922,-11.0866 L4.5922,-11.0866 M4.8792,-11.7795 L4.8792,-11.7795 M5.1662,-12.4724 L5.1662,-12.4724 M5.4532,-13.1653 L5.4532,-13.1653 M5.7403,-13.8582 L5.7403,-13.8582 M6.0273,-14.5511 L6.0273,-14.5511 M6.3143,-15.244 L6.3143,-15.244 M6.6013,-15.9369 L6.6013,-15.9369 M6.8883,-16.6298 L6.8883,-16.6298 M7.1753,-17.3227 L7.1753,-17.3227 M7.4623,-18.0157 L7.4623,-18.0157 M7.7493,-18.7086 L7.7493,-18.7086 M8.0364,-19.4015 L8.0364,-19.4015 M8.3234,-20.0944 L8.3234,-20.0944 M8.6104,-20.7873 L8.6104,-20.7873 M8.8974,-21.4802 L8.8974,-21.4802 M9.1844,-22.1731 L9.1844,-22.1731 M9.4714,-22.866 L9.4714,-22.866 M9.7584,-23.5589 L9.7584,-23.5589 M10.0454,-24.2518 L10.0454,-24.2518 M10.3325,-24.9447 L10.3325,-24.9447 M10.6195,-25.6377 L10.6195,-25.6377 M10.9065,-26.3306 L10.9065,-26.3306 M11.1935,-27.0235 L11.1935,-27.0235 M11.4805,-27.7164 L11.4805,-27.7164 M11.7675,-28.4093 L11.7675,-28.4093 M12.0545,-29.1022 L12.0545,-29.1022 M12.3415,-29.7951 L12.3415,-29.7951 M12.6286,-30.488 L12.6286,-30.488 M12.9156,-31.1809 L12.9156,-31.1809 M13.2026,-31.8738 L13.2026,-31.8738 M13.4896,-32.5668 L13.4896,-32.5668 M13.7766,-33.2597 L13.7766,-33.2597 M14.0636,-33.9526 L14.0636,-33.9526 M14.3506,-34.6455 L14.3506,-34.6455 M14.6376,-35.3384 L14.6376,-35.3384 M14.9247,-36.0313 L14.9247,-36.0313 M15.2117,-36.7242 L15.2117,-36.7242 " style="stroke:#000000;stroke-width:0.25;"/>
        <!-- Line -->
        <path d="M-0.1155,-0.0478 L-0.1155,-0.0478 M-0.8084,-0.3348 L-0.8084,-0.3348 M-1.5013,-0.6219 L-1.5013,-0.6219 M-2.1942,-0.9089 L-2.1942,-0.9089 M-2.8871,-1.1959 L-2.8871,-1.1959 M-3.58,-1.4829 L-3.58,-1.4829 M-4.2729,-1.7699 L-4.2729,-1.7699 M-4.9659,-2.0569 L-4.9659,-2.0569 M-5.6588,-2.3439 L-5.6588,-2.3439 M-6.3517,-2.6309 L-6.3517,-2.6309 M-7.0446,-2.918 L-7.0446,-2.918 M-7.7375,-3.205 L-7.7375,-3.205 M-8.4304,-3.492 L-8.4304,-3.492 M-9.1233,-3.779 L-9.1233,-3.779 M-9.8162,-4.066 L-9.8162,-4.066 M-10.5091,-4.353 L-10.5091,-4.353 M-11.202,-4.64 L-11.202,-4.64 M-11.8949,-4.927 L-11.8949,-4.927 M-12.5879,-5.2141 L-12.5879,-5.2141 M-13.2808,-5.5011 L-13.2808,-5.5011 M-13.9737,-5.7881 L-13.9737,-5.7881 M-14.6666,-6.0751 L-14.6666,-6.0751 M-15.3595,-6.3621 L-15.3595,-6.3621 M-16.0524,-6.6491 L-16.0524,-6.6491 M-16.7453,-6.9361 L-16.7453,-6.9361 M-17.4382,-7.2231 L-17.4382,-7.2231 M-18.1311,-7.5102 L-18.1311,-7.5102 M-18.824,-7.7972 L-18.824,-7.7972 M-19.517,-8.0842 L-19.517,-8.0842 M-20.2099,-8.3712 L-20.2099,-8.3712 M-20.9028,-8.6582 L-20.9028,-8.6582 M-21.5957,-8.9452 L-21.5957,-8.9452 M-22.2886,-9.2322 L-22.2886,-9.2322 M-22.9815,-9.5193 L-22.9815,-9.5193 M-23.6744,-9.8063 L-23.6744,-9.8063 M-24.3673,-10.0933 L-24.3673,-10.0933 M-25.0602,-10.3803 L-25.0602,-10.3803 M-25.7531,-10.6673 L-25.7531,-10.6673 M-26.4461,-10.9543 L-26.4461,-10.9543 M-27.139,-11.2413 L-27.139,-11.2413 M-27.8319,-11.5283 L-27.8319,-11.5283 M-28.5248,-11.8154 L-28.5248,-11.8154 M-29.2177,-12.1024 L-29.2177,-12.1024 M-29.9106,-12.3894 L-29.9106,-12.3894 M-30.6035,-12.6764 L-30.6035,-12.6764 M-31.2964,-12.9634 L-31.2964,-12.9634 M-31.9893,-13.2504 L-31.9893,-13.2504 M-32.6822,-13.5374 L-32.6822,-13.5374 M-33.3751,-13.8244 L-33.3751,-13.8244 M-34.0681,-14.1115 L-34.0681,-14.1115 M-34.761,-14.3985 L-34.761,-14.3985 M-35.4539,-14.6855 L-35.4539,-14.6855 M-36.1468,-14.9725 L-36.1468,-14.9725 M-36.8397,-15.2595 L-36.8397,-15.2595 " style="stroke:#000000;stroke-width:0.25;"/>
        <!-- Circle -->
        <path d="M-0.0002,37.0448 L-0.0002,37.0448M-0.023,37.7944 L-0.023,37.7944M-0.0824,38.542 L-0.0824,38.542M-0.1784,39.2857 L-0.1784,39.2857M-0.3107,40.0239 L-0.3107,40.0239M-0.479,40.7547 L-0.479,40.7547M-0.6828,41.4763 L-0.6828,41.4763M-0.9218,42.1872 L-0.9218,42.1872M-1.1953,42.8854 L-1.1953,42.8854M-1.5027,43.5695 L-1.5027,43.5695M-1.8432,44.2376 L-1.8432,44.2376M-2.2161,44.8883 L-2.2161,44.8883M-2.6203,45.52 L-2.6203,45.52M-3.055,46.1311 L-3.055,46.1311M-3.5191,46.7201 L-3.5191,46.7201M-4.0115,47.2857 L-4.0115,47.2857M-4.531,47.8266 L-4.531,47.8266M-5.0764,48.3413 L-5.0764,48.3413M-5.6463,48.8287 L-5.6463,48.8287M-6.2394,49.2876 L-6.2394,49.2876M-6.8543,49.717 L-6.8543,49.717M-7.4895,50.1156 L-7.4895,50.1156M-8.1434,50.4827 L-8.1434,50.4827M-8.8145,50.8174 L-8.8145,50.8174M-9.5012,51.1187 L-9.5012,51.1187M-10.2019,51.3861 L-10.2019,51.3861M-10.9148,51.6188 L-10.9148,51.6188M-11.6382,51.8163 L-11.6382,51.8163M-12.3705,51.9782 L-12.3705,51.9782M-13.1098,52.104 L-13.1098,52.104M-13.8543,52.1935 L-13.8543,52.1935M-14.6024,52.2463 L-14.6024,52.2463M-15.3521,52.2625 L-15.3521,52.2625M-16.1018,52.242 L-16.1018,52.242M-16.8495,52.1847 L-16.8495,52.1847M-17.5936,52.0909 L-17.5936,52.0909M-18.3321,51.9608 L-18.3321,51.9608M-19.0634,51.7946 L-19.0634,51.7946M-19.7857,51.5928 L-19.7857,51.5928M-20.4972,51.3559 L-20.4972,51.3559M-21.1963,51.0845 L-21.1963,51.0845M-21.8812,50.7791 L-21.8812,50.7791M-22.5504,50.4406 L-22.5504,50.4406M-23.2021,50.0696 L-23.2021,50.0696M-23.8349,49.6672 L-23.8349,49.6672M-24.4473,49.2343 L-24.4473,49.2343M-25.0377,48.772 L-25.0377,48.772M-25.6048,48.2812 L-25.6048,48.2812M-26.1471,47.7633 L-26.1471,47.7633M-26.6635,47.2194 L-26.6635,47.2194M-27.1525,46.6509 L-27.1525,46.6509M-27.6132,46.0592 L-27.6132,46.0592M-28.0443,45.4455 L-28.0443,45.4455M-28.4448,44.8115 L-28.4448,44.8115M-28.8139,44.1587 L-28.8139,44.1587M-29.1504,43.4885 L-29.1504,43.4885M-29.4538,42.8027 L-29.4538,42.8027M-29.7232,42.1029 L-29.7232,42.1029M-29.958,41.3906 L-29.958,41.3906M-30.1577,40.6678 L-30.1577,40.6678M-30.3217,39.936 L-30.3217,39.936M-30.4497,39.1971 L-30.4497,39.1971M-30.5413,38.4528 L-30.5413,38.4528M-30.5964,37.7049 L-30.5964,37.7049M-30.6147,36.9552 L-30.6147,36.9552M-30.5964,36.2055 L-30.5964,36.2055M-30.5413,35.4576 L-30.5413,35.4576M-30.4497,34.7133 L-30.4497,34.7133M-30.3217,33.9743 L-30.3217,33.9743M-30.1577,33.2426 L-30.1577,33.2426M-29.958,32.5197 L-29.958,32.5197M-29.7232,31.8075 L-29.7232,31.8075M-29.4538,31.1076 L-29.4538,31.1076M-29.1504,30.4218 L-29.1504,30.4218M-28.8139,29.7517 L-28.8139,29.7517M-28.4448,29.0988 L-28.4448,29.0988M-28.0443,28.4648 L-28.0443,28.4648M-27.6132,27.8512 L-27.6132,27.8512M-27.1525,27.2594 L-27.1525,27.2594M-26.6635,26.6909 L-26.6635,26.6909M-26.1471,26.1471 L-26.1471,26.1471M-25.6048,25.6291 L-25.6048,25.6291M-25.0377,25.1384 L-25.0377,25.1384M-24.4473,24.676 L-24.4473,24.676M-23.8349,24.2431 L-23.8349,24.2431M-23.2021,23.8407 L-23.2021,23.8407M-22.5504,23.4698 L-22.5504,23.4698M-21.8812,23.1313 L-21.8812,23.1313M-21.1963,22.8259 L-21.1963,22.8259M-20.4972,22.5544 L-20.4972,22.5544M-19.7857,22.3175 L-19.7857,22.3175M-19.0634,22.1158 L-19.0634,22.1158M-18.3321,21.9496 L-18.3321,21.9496M-17.5936,21.8195 L-17.5936,21.8195M-16.8495,21.7257 L-16.8495,21.7257M-16.1018,21.6684 L-16.1018,21.6684M-15.3521,21.6478 L-15.3521,21.6478M-14.6024,21.664 L-14.6024,21.664M-13.8543,21.7169 L-13.8543,21.7169M-13.1098,21.8063 L-13.1098,21.8063M-12.3705,21.9322 L-12.3705,21.9322M-11.6382,22.094 L-11.6382,22.094M-10.9148,22.2916 L-10.9148,22.2916M-10.2019,22.5243 L-10.2019,22.5243M-9.5012,22.7916 L-9.5012,22.7916M-8.8145,23.093 L-8.8145,23.093M-8.1434,23.4276 L-8.1434,23.4276M-7.4895,23.7947 L-7.4895,23.7947M-6.8543,24.1934 L-6.8543,24.1934M-6.2394,24.6227 L-6.2394,24.6227M-5.6463,25.0816 L-5.6463,25.0816M-5.0764,25.569 L-5.0764,25.569M-4.531,26.0838 L-4.531,26.0838M-4.0115,26.6246 L-4.0115,26.6246M-3.5191,27.1902 L-3.5191,27.1902M-3.055,27.7793 L-3.055,27.7793M-2.6203,28.3904 L-2.6203,28.3904M-2.2161,29.022 L-2.2161,29.022M-1.8432,29.6727 L-1.8432,29.6727M-1.5027,30.3409 L-1.5027,30.3409M-1.1953,31.0249 L-1.1953,31.0249M-0.9218,31.7232 L-0.9218,31.7232M-0.6828,32.434 L-0.6828,32.434M-0.479,33.1557 L-0.479,33.1557M-0.3107,33.8865 L-0.3107,33.8865M-0.1784,34.6247 L-0.1784,34.6247M-0.0824,35.3684 L-0.0824,35.3684M-0.023,36.116 L-0.023,36.116M-0.0002,36.8656 L-0.0002,36.8656" style="stroke:#000000;stroke-width:0.25;"/>
        <!-- Circle -->
        <path d="M30.6143,37.0444 L30.6143,37.0444M30.5916,37.794 L30.5916,37.794M30.5322,38.5415 L30.5322,38.5415M30.4362,39.2853 L30.4362,39.2853M30.3039,40.0235 L30.3039,40.0235M30.1357,40.7543 L30.1357,40.7543M29.9318,41.476 L29.9318,41.476M29.6928,42.1868 L29.6928,42.1868M29.4194,42.8851 L29.4194,42.8851M29.112,43.5691 L29.112,43.5691M28.7715,44.2373 L28.7715,44.2373M28.3987,44.888 L28.3987,44.888M27.9945,45.5196 L27.9945,45.5196M27.5598,46.1307 L27.5598,46.1307M27.0957,46.7198 L27.0957,46.7198M26.6033,47.2854 L26.6033,47.2854M26.0838,47.8263 L26.0838,47.8263M25.5384,48.341 L25.5384,48.341M24.9685,48.8284 L24.9685,48.8284M24.3754,49.2874 L24.3754,49.2874M23.7605,49.7167 L23.7605,49.7167M23.1254,50.1154 L23.1254,50.1154M22.4715,50.4825 L22.4715,50.4825M21.8003,50.8171 L21.8003,50.8171M21.1136,51.1185 L21.1136,51.1185M20.413,51.3859 L20.413,51.3859M19.7001,51.6186 L19.7001,51.6186M18.9766,51.8162 L18.9766,51.8162M18.2444,51.978 L18.2444,51.978M17.5051,52.1039 L17.5051,52.1039M16.7605,52.1933 L16.7605,52.1933M16.0125,52.2462 L16.0125,52.2462M15.2627,52.2624 L15.2627,52.2624M14.5131,52.2418 L14.5131,52.2418M13.7654,52.1846 L13.7654,52.1846M13.0213,52.0908 L13.0213,52.0908M12.2828,51.9607 L12.2828,51.9607M11.5515,51.7945 L11.5515,51.7945M10.8292,51.5928 L10.8292,51.5928M10.1177,51.3559 L10.1177,51.3559M9.4186,51.0844 L9.4186,51.0844M8.7337,50.7791 L8.7337,50.7791M8.0645,50.4405 L8.0645,50.4405M7.4127,50.0696 L7.4127,50.0696M6.7799,49.6672 L6.7799,49.6672M6.1675,49.2343 L6.1675,49.2343M5.5771,48.7719 L5.5771,48.7719M5.0101,48.2812 L5.0101,48.2812M4.4677,47.7633 L4.4677,47.7633M3.9514,47.2194 L3.9514,47.2194M3.4623,46.6509 L3.4623,46.6509M3.0016,46.0592 L3.0016,46.0592M2.5705,45.4455 L2.5705,45.4455M2.17,44.8115 L2.17,44.8115M1.801,44.1587 L1.801,44.1587M1.4644,43.4885 L1.4644,43.4885M1.161,42.8027 L1.161,42.8027M0.8916,42.1029 L0.8916,42.1029M0.6568,41.3906 L0.6568,41.3906M0.4571,40.6678 L0.4571,40.6678M0.2931,39.936 L0.2931,39.936M0.1651,39.1971 L0.1651,39.1971M0.0735,38.4528 L0.0735,38.4528M0.0184,37.7049 L0.0184,37.7049M0.0001,36.9552 L0.0001,36.9552M0.0184,36.2055 L0.0184,36.2055M0.0735,35.4576 L0.0735,35.4576M0.1651,34.7133 L0.1651,34.7133M0.2931,33.9743 L0.2931,33.9743M0.4571,33.2426 L0.4571,33.2426M0.6568,32.5197 L0.6568,32.5197M0.8916,31.8075 L0.8916,31.8075M1.161,31.1076 L1.161,31.1076M1.4644,30.4218 L1.4644,30.4218M1.801,29.7517 L1.801,29.7517M2.17,29.0988 L2.17,29.0988M2.5705,28.4648 L2.5705,28.4648M3.0016,27.8512 L3.0016,27.8512M3.4623,27.2594 L3.4623,27.2594M3.9514,26.6909 L3.9514,26.6909M4.4677,26.1471 L4.4677,26.1471M5.0101,25.6292 L5.0101,25.6292M5.5771,25.1384 L5.5771,25.1384M6.1675,24.6761 L6.1675,24.6761M6.7799,24.2432 L6.7799,24.2432M7.4127,23.8408 L7.4127,23.8408M8.0645,23.4699 L8.0645,23.4699M8.7337,23.1313 L8.7337,23.1313M9.4186,22.8259 L9.4186,22.8259M10.1177,22.5545 L10.1177,22.5545M10.8292,22.3176 L10.8292,22.3176M11.5515,22.1158 L11.5515,22.1158M12.2828,21.9497 L12.2828,21.9497M13.0213,21.8196 L13.0213,21.8196M13.7654,21.7258 L13.7654,21.7258M14.5131,21.6685 L14.5131,21.6685M15.2627,21.648 L15.2627,21.648M16.0125,21.6642 L16.0125,21.6642M16.7605,21.717 L16.7605,21.717M17.5051,21.8065 L17.5051,21.8065M18.2444,21.9323 L18.2444,21.9323M18.9766,22.0942 L18.9766,22.0942M19.7001,22.2917 L19.7001,22.2917M20.413,22.5245 L20.413,22.5245M21.1136,22.7919 L21.1136,22.7919M21.8003,23.0932 L21.8003,23.0932M22.4715,23.4279 L22.4715,23.4279M23.1254,23.795 L23.1254,23.795M23.7605,24.1937 L23.7605,24.1937M24.3754,24.623 L24.3754,24.623M24.9685,25.0819 L24.9685,25.0819M25.5384,25.5693 L25.5384,25.5693M26.0838,26.0841 L26.0838,26.0841M26.6033,26.6249 L26.6033,26.6249M27.0957,27.1906 L27.0957,27.1906M27.5598,27.7796 L27.5598,27.7796M27.9945,28.3907 L27.9945,28.3907M28.3987,29.0224 L28.3987,29.0224M28.7715,29.6731 L28.7715,29.6731M29.112,30.3413 L29.112,30.3413M29.4194,31.0253 L29.4194,31.0253M29.6928,31.7236 L29.6928,31.7236M29.9318,32.4344 L29.9318,32.4344M30.1357,33.1561 L30.1357,33.1561M30.3039,33.8869 L30.3039,33.8869M30.4362,34.6251 L30.4362,34.6251M30.5322,35.3688 L30.5322,35.3688M30.5916,36.1164 L30.5916,36.1164M30.6143,36.866 L30.6143,36.866" style="stroke:#000000;stroke-width:0.25;"/>
        <!-- Circle -->
        <path d="M52.2623,15.397 L52.2623,15.397M52.2396,16.1465 L52.2396,16.1465M52.1801,16.8941 L52.1801,16.8941M52.0841,17.6379 L52.0841,17.6379M51.9518,18.376 L51.9518,18.376M51.7835,19.1068 L51.7835,19.1068M51.5797,19.8285 L51.5797,19.8285M51.3407,20.5393 L51.3407,20.5393M51.0672,21.2376 L51.0672,21.2376M50.7598,21.9216 L50.7598,21.9216M50.4193,22.5898 L50.4193,22.5898M50.0465,23.2405 L50.0465,23.2405M49.6422,23.8721 L49.6422,23.8721M49.2075,24.4832 L49.2075,24.4832M48.7434,25.0723 L48.7434,25.0723M48.251,25.6379 L48.251,25.6379M47.7315,26.1787 L47.7315,26.1787M47.1861,26.6935 L47.1861,26.6935M46.6162,27.1809 L46.6162,27.1809M46.0231,27.6398 L46.0231,27.6398M45.4082,28.0691 L45.4082,28.0691M44.773,28.4678 L44.773,28.4678M44.1191,28.8349 L44.1191,28.8349M43.448,29.1695 L43.448,29.1695M42.7613,29.4709 L42.7613,29.4709M42.0606,29.7382 L42.0606,29.7382M41.3477,29.971 L41.3477,29.971M40.6243,30.1685 L40.6243,30.1685M39.892,30.3304 L39.892,30.3304M39.1527,30.4562 L39.1527,30.4562M38.4082,30.5456 L38.4082,30.5456M37.6601,30.5985 L37.6601,30.5985M36.9104,30.6147 L36.9104,30.6147M36.1607,30.5941 L36.1607,30.5941M35.413,30.5369 L35.413,30.5369M34.669,30.443 L34.669,30.443M33.9304,30.3129 L33.9304,30.3129M33.1991,30.1468 L33.1991,30.1468M32.4768,29.945 L32.4768,29.945M31.7653,29.7081 L31.7653,29.7081M31.0663,29.4366 L31.0663,29.4366M30.3813,29.1313 L30.3813,29.1313M29.7122,28.7927 L29.7122,28.7927M29.0604,28.4218 L29.0604,28.4218M28.4276,28.0194 L28.4276,28.0194M27.8152,27.5865 L27.8152,27.5865M27.2248,27.1241 L27.2248,27.1241M26.6577,26.6334 L26.6577,26.6334M26.1154,26.1155 L26.1154,26.1155M25.599,25.5716 L25.599,25.5716M25.11,25.0031 L25.11,25.0031M24.6493,24.4113 L24.6493,24.4113M24.2182,23.7977 L24.2182,23.7977M23.8177,23.1637 L23.8177,23.1637M23.4487,22.5108 L23.4487,22.5108M23.1121,21.8407 L23.1121,21.8407M22.8087,21.1549 L22.8087,21.1549M22.5393,20.455 L22.5393,20.455M22.3045,19.7428 L22.3045,19.7428M22.1048,19.0199 L22.1048,19.0199M21.9408,18.2882 L21.9408,18.2882M21.8128,17.5492 L21.8128,17.5492M21.7212,16.8049 L21.7212,16.8049M21.6661,16.057 L21.6661,16.057M21.6478,15.3073 L21.6478,15.3073M21.6661,14.5576 L21.6661,14.5576M21.7212,13.8097 L21.7212,13.8097M21.8128,13.0654 L21.8128,13.0654M21.9408,12.3265 L21.9408,12.3265M22.1048,11.5947 L22.1048,11.5947M22.3045,10.8719 L22.3045,10.8719M22.5393,10.1597 L22.5393,10.1597M22.8087,9.4598 L22.8087,9.4598M23.1121,8.774 L23.1121,8.774M23.4487,8.1038 L23.4487,8.1038M23.8177,7.451 L23.8177,7.451M24.2182,6.817 L24.2182,6.817M24.6493,6.2034 L24.6493,6.2034M25.11,5.6116 L25.11,5.6116M25.599,5.0431 L25.599,5.0431M26.1154,4.4992 L26.1154,4.4992M26.6577,3.9813 L26.6577,3.9813M27.2248,3.4906 L27.2248,3.4906M27.8152,3.0282 L27.8152,3.0282M28.4276,2.5953 L28.4276,2.5953M29.0604,2.1929 L29.0604,2.1929M29.7122,1.822 L29.7122,1.822M30.3813,1.4834 L30.3813,1.4834M31.0663,1.178 L31.0663,1.178M31.7653,0.9066 L31.7653,0.9066M32.4768,0.6697 L32.4768,0.6697M33.1991,0.4679 L33.1991,0.4679M33.9304,0.3018 L33.9304,0.3018M34.669,0.1716 L34.669,0.1716M35.413,0.0778 L35.413,0.0778M36.1607,0.0206 L36.1607,0.0206M36.9104,0 L36.9104,0M37.6601,0.0162 L37.6601,0.0162M38.4082,0.0691 L38.4082,0.0691M39.1527,0.1585 L39.1527,0.1585M39.892,0.2843 L39.892,0.2843M40.6243,0.4462 L40.6243,0.4462M41.3477,0.6437 L41.3477,0.6437M42.0606,0.8764 L42.0606,0.8764M42.7613,1.1438 L42.7613,1.1438M43.448,1.4452 L43.448,1.4452M44.1191,1.7798 L44.1191,1.7798M44.773,2.1469 L44.773,2.1469M45.4082,2.5456 L45.4082,2.5456M46.0231,2.9749 L46.0231,2.9749M46.6162,3.4338 L46.6162,3.4338M47.1861,3.9212 L47.1861,3.9212M47.7315,4.4359 L47.7315,4.4359M48.251,4.9768 L48.251,4.9768M48.7434,5.5424 L48.7434,5.5424M49.2075,6.1315 L49.2075,6.1315M49.6422,6.7425 L49.6422,6.7425M50.0465,7.3742 L50.0465,7.3742M50.4193,8.0249 L50.4193,8.0249M50.7598,8.693 L50.7598,8.693M51.0672,9.3771 L51.0672,9.3771M51.3407,10.0753 L51.3407,10.0753M51.5797,10.7862 L51.5797,10.7862M51.7835,11.5078 L51.7835,11.5078M51.9518,12.2386 L51.9518,12.2386M52.0841,12.9768 L52.0841,12.9768M52.1801,13.7206 L52.1801,13.7206M52.2396,14.4681 L52.2396,14.4681M52.2623,15.2177 L52.2623,15.2177" style="stroke:#000000;stroke-width:0.25;"/>
        <!-- Circle -->
        <path d="M52.2622,-15.2181 L52.2622,-15.2181M52.2395,-14.4685 L52.2395,-14.4685M52.18,-13.721 L52.18,-13.721M52.0841,-12.9772 L52.0841,-12.9772M51.9518,-12.2391 L51.9518,-12.2391M51.7835,-11.5082 L51.7835,-11.5082M51.5797,-10.7866 L51.5797,-10.7866M51.3407,-10.0757 L51.3407,-10.0757M51.0672,-9.3775 L51.0672,-9.3775M50.7598,-8.6934 L50.7598,-8.6934M50.4193,-8.0252 L50.4193,-8.0252M50.0465,-7.3746 L50.0465,-7.3746M49.6423,-6.7429 L49.6423,-6.7429M49.2076,-6.1318 L49.2076,-6.1318M48.7435,-5.5427 L48.7435,-5.5427M48.2511,-4.9771 L48.2511,-4.9771M47.7316,-4.4363 L47.7316,-4.4363M47.1863,-3.9215 L47.1863,-3.9215M46.6164,-3.4341 L46.6164,-3.4341M46.0233,-2.9752 L46.0233,-2.9752M45.4084,-2.5458 L45.4084,-2.5458M44.7732,-2.1471 L44.7732,-2.1471M44.1193,-1.78 L44.1193,-1.78M43.4482,-1.4454 L43.4482,-1.4454M42.7615,-1.144 L42.7615,-1.144M42.0608,-0.8766 L42.0608,-0.8766M41.3479,-0.6439 L41.3479,-0.6439M40.6245,-0.4464 L40.6245,-0.4464M39.8922,-0.2845 L39.8922,-0.2845M39.153,-0.1587 L39.153,-0.1587M38.4084,-0.0692 L38.4084,-0.0692M37.6603,-0.0163 L37.6603,-0.0163M36.9106,-0.0001 L36.9106,-0.0001M36.1609,-0.0207 L36.1609,-0.0207M35.4132,-0.0779 L35.4132,-0.0779M34.6692,-0.1717 L34.6692,-0.1717M33.9306,-0.3019 L33.9306,-0.3019M33.1993,-0.468 L33.1993,-0.468M32.477,-0.6698 L32.477,-0.6698M31.7655,-0.9066 L31.7655,-0.9066M31.0664,-1.1781 L31.0664,-1.1781M30.3815,-1.4835 L30.3815,-1.4835M29.7124,-1.822 L29.7124,-1.822M29.0606,-2.1929 L29.0606,-2.1929M28.4278,-2.5953 L28.4278,-2.5953M27.8154,-3.0282 L27.8154,-3.0282M27.225,-3.4906 L27.225,-3.4906M26.6579,-3.9813 L26.6579,-3.9813M26.1155,-4.4992 L26.1155,-4.4992M25.5992,-5.0431 L25.5992,-5.0431M25.1101,-5.6116 L25.1101,-5.6116M24.6495,-6.2034 L24.6495,-6.2034M24.2184,-6.817 L24.2184,-6.817M23.8178,-7.451 L23.8178,-7.451M23.4488,-8.1038 L23.4488,-8.1038M23.1122,-8.774 L23.1122,-8.774M22.8088,-9.4598 L22.8088,-9.4598M22.5394,-10.1597 L22.5394,-10.1597M22.3046,-10.8719 L22.3046,-10.8719M22.105,-11.5947 L22.105,-11.5947M21.9409,-12.3265 L21.9409,-12.3265M21.813,-13.0654 L21.813,-13.0654M21.7213,-13.8097 L21.7213,-13.8097M21.6663,-14.5576 L21.6663,-14.5576M21.6479,-15.3073 L21.6479,-15.3073M21.6663,-16.057 L21.6663,-16.057M21.7213,-16.8049 L21.7213,-16.8049M21.813,-17.5492 L21.813,-17.5492M21.9409,-18.2882 L21.9409,-18.2882M22.105,-19.0199 L22.105,-19.0199M22.3046,-19.7428 L22.3046,-19.7428M22.5394,-20.455 L22.5394,-20.455M22.8088,-21.1549 L22.8088,-21.1549M23.1122,-21.8407 L23.1122,-21.8407M23.4488,-22.5108 L23.4488,-22.5108M23.8178,-23.1637 L23.8178,-23.1637M24.2184,-23.7977 L24.2184,-23.7977M24.6495,-24.4113 L24.6495,-24.4113M25.1101,-25.0031 L25.1101,-25.0031M25.5992,-25.5716 L25.5992,-25.5716M26.1155,-26.1154 L26.1155,-26.1154M26.6579,-26.6333 L26.6579,-26.6333M27.225,-27.1241 L27.225,-27.1241M27.8154,-27.5865 L27.8154,-27.5865M28.4278,-28.0194 L28.4278,-28.0194M29.0606,-28.4217 L29.0606,-28.4217M29.7124,-28.7927 L29.7124,-28.7927M30.3815,-29.1312 L30.3815,-29.1312M31.0664,-29.4366 L31.0664,-29.4366M31.7655,-29.708 L31.7655,-29.708M32.477,-29.9449 L32.477,-29.9449M33.1993,-30.1467 L33.1993,-30.1467M33.9306,-30.3128 L33.9306,-30.3128M34.6692,-30.4429 L34.6692,-30.4429M35.4132,-30.5367 L35.4132,-30.5367M36.1609,-30.594 L36.1609,-30.594M36.9106,-30.6145 L36.9106,-30.6145M37.6603,-30.5984 L37.6603,-30.5984M38.4084,-30.5455 L38.4084,-30.5455M39.153,-30.456 L39.153,-30.456M39.8922,-30.3302 L39.8922,-30.3302M40.6245,-30.1683 L40.6245,-30.1683M41.3479,-29.9708 L41.3479,-29.9708M42.0608,-29.738 L42.0608,-29.738M42.7615,-29.4707 L42.7615,-29.4707M43.4482,-29.1693 L43.4482,-29.1693M44.1193,-28.8346 L44.1193,-28.8346M44.7732,-28.4675 L44.7732,-28.4675M45.4084,-28.0688 L45.4084,-28.0688M46.0233,-27.6395 L46.0233,-27.6395M46.6164,-27.1806 L46.6164,-27.1806M47.1863,-26.6932 L47.1863,-26.6932M47.7316,-26.1784 L47.7316,-26.1784M48.2511,-25.6376 L48.2511,-25.6376M48.7435,-25.0719 L48.7435,-25.0719M49.2076,-24.4829 L49.2076,-24.4829M49.6423,-23.8718 L49.6423,-23.8718M50.0465,-23.2401 L50.0465,-23.2401M50.4193,-22.5894 L50.4193,-22.5894M50.7598,-21.9213 L50.7598,-21.9213M51.0672,-21.2372 L51.0672,-21.2372M51.3407,-20.5389 L51.3407,-20.5389M51.5797,-19.8281 L51.5797,-19.8281M51.7835,-19.1064 L51.7835,-19.1064M51.9518,-18.3756 L51.9518,-18.3756M52.0841,-17.6375 L52.0841,-17.6375M52.18,-16.8937 L52.18,-16.8937M52.2395,-16.1461 L52.2395,-16.1461M52.2622,-15.3965 L52.2622,-15.3965" style="stroke:#000000;stroke-width:0.25;"/>
        <!-- Circle -->
        <path d="M30.6145,-36.8656 L30.6145,-36.8656M30.5917,-36.116 L30.5917,-36.116M30.5323,-35.3684 L30.5323,-35.3684M30.4363,-34.6247 L30.4363,-34.6247M30.304,-33.8865 L30.304,-33.8865M30.1357,-33.1557 L30.1357,-33.1557M29.9318,-32.434 L29.9318,-32.434M29.6928,-31.7232 L29.6928,-31.7232M29.4193,-31.0249 L29.4193,-31.0249M29.112,-30.3409 L29.112,-30.3409M28.7714,-29.6727 L28.7714,-29.6727M28.3986,-29.022 L28.3986,-29.022M27.9944,-28.3904 L27.9944,-28.3904M27.5597,-27.7793 L27.5597,-27.7793M27.0956,-27.1902 L27.0956,-27.1902M26.6032,-26.6246 L26.6032,-26.6246M26.0837,-26.0838 L26.0837,-26.0838M25.5383,-25.569 L25.5383,-25.569M24.9684,-25.0816 L24.9684,-25.0816M24.3753,-24.6227 L24.3753,-24.6227M23.7604,-24.1934 L23.7604,-24.1934M23.1252,-23.7947 L23.1252,-23.7947M22.4713,-23.4276 L22.4713,-23.4276M21.8001,-23.093 L21.8001,-23.093M21.1134,-22.7916 L21.1134,-22.7916M20.4128,-22.5243 L20.4128,-22.5243M19.6999,-22.2916 L19.6999,-22.2916M18.9765,-22.094 L18.9765,-22.094M18.2442,-21.9322 L18.2442,-21.9322M17.5049,-21.8063 L17.5049,-21.8063M16.7603,-21.7169 L16.7603,-21.7169M16.0123,-21.664 L16.0123,-21.664M15.2625,-21.6478 L15.2625,-21.6478M14.5129,-21.6684 L14.5129,-21.6684M13.7651,-21.7257 L13.7651,-21.7257M13.0211,-21.8195 L13.0211,-21.8195M12.2826,-21.9496 L12.2826,-21.9496M11.5513,-22.1158 L11.5513,-22.1158M10.829,-22.3175 L10.829,-22.3175M10.1175,-22.5544 L10.1175,-22.5544M9.4184,-22.8259 L9.4184,-22.8259M8.7335,-23.1313 L8.7335,-23.1313M8.0643,-23.4698 L8.0643,-23.4698M7.4125,-23.8407 L7.4125,-23.8407M6.7797,-24.2431 L6.7797,-24.2431M6.1674,-24.676 L6.1674,-24.676M5.577,-25.1384 L5.577,-25.1384M5.0099,-25.6291 L5.0099,-25.6291M4.4675,-26.1471 L4.4675,-26.1471M3.9512,-26.6909 L3.9512,-26.6909M3.4621,-27.2594 L3.4621,-27.2594M3.0015,-27.8512 L3.0015,-27.8512M2.5704,-28.4648 L2.5704,-28.4648M2.1698,-29.0988 L2.1698,-29.0988M1.8008,-29.7517 L1.8008,-29.7517M1.4642,-30.4218 L1.4642,-30.4218M1.1609,-31.1076 L1.1609,-31.1076M0.8914,-31.8075 L0.8914,-31.8075M0.6566,-32.5197 L0.6566,-32.5197M0.457,-33.2426 L0.457,-33.2426M0.293,-33.9743 L0.293,-33.9743M0.165,-34.7133 L0.165,-34.7133M0.0734,-35.4576 L0.0734,-35.4576M0.0183,-36.2055 L0.0183,-36.2055M-0.0001,-36.9552 L-0.0001,-36.9552M0.0183,-37.7049 L0.0183,-37.7049M0.0734,-38.4528 L0.0734,-38.4528M0.165,-39.1971 L0.165,-39.1971M0.293,-39.936 L0.293,-39.936M0.457,-40.6678 L0.457,-40.6678M0.6566,-41.3906 L0.6566,-41.3906M0.8914,-42.1029 L0.8914,-42.1029M1.1609,-42.8027 L1.1609,-42.8027M1.4642,-43.4885 L1.4642,-43.4885M1.8008,-44.1587 L1.8008,-44.1587M2.1698,-44.8115 L2.1698,-44.8115M2.5704,-45.4455 L2.5704,-45.4455M3.0015,-46.0592 L3.0015,-46.0592M3.4621,-46.6509 L3.4621,-46.6509M3.9512,-47.2194 L3.9512,-47.2194M4.4675,-47.7633 L4.4675,-47.7633M5.0099,-48.2812 L5.0099,-48.2812M5.577,-48.772 L5.577,-48.772M6.1674,-49.2343 L6.1674,-49.2343M6.7797,-49.6672 L6.7797,-49.6672M7.4125,-50.0696 L7.4125,-50.0696M8.0643,-50.4406 L8.0643,-50.4406M8.7335,-50.7791 L8.7335,-50.7791M9.4184,-51.0845 L9.4184,-51.0845M10.1175,-51.3559 L10.1175,-51.3559M10.829,-51.5928 L10.829,-51.5928M11.5513,-51.7946 L11.5513,-51.7946M12.2826,-51.9608 L12.2826,-51.9608M13.0211,-52.0909 L13.0211,-52.0909M13.7651,-52.1847 L13.7651,-52.1847M14.5129,-52.242 L14.5129,-52.242M15.2625,-52.2625 L15.2625,-52.2625M16.0123,-52.2463 L16.0123,-52.2463M16.7603,-52.1935 L16.7603,-52.1935M17.5049,-52.104 L17.5049,-52.104M18.2442,-51.9782 L18.2442,-51.9782M18.9765,-51.8163 L18.9765,-51.8163M19.6999,-51.6188 L19.6999,-51.6188M20.4128,-51.3861 L20.4128,-51.3861M21.1134,-51.1187 L21.1134,-51.1187M21.8001,-50.8174 L21.8001,-50.8174M22.4713,-50.4827 L22.4713,-50.4827M23.1252,-50.1156 L23.1252,-50.1156M23.7604,-49.717 L23.7604,-49.717M24.3753,-49.2876 L24.3753,-49.2876M24.9684,-48.8287 L24.9684,-48.8287M25.5383,-48.3413 L25.5383,-48.3413M26.0837,-47.8266 L26.0837,-47.8266M26.6032,-47.2857 L26.6032,-47.2857M27.0956,-46.7201 L27.0956,-46.7201M27.5597,-46.1311 L27.5597,-46.1311M27.9944,-45.52 L27.9944,-45.52M28.3986,-44.8883 L28.3986,-44.8883M28.7714,-44.2376 L28.7714,-44.2376M29.112,-43.5695 L29.112,-43.5695M29.4193,-42.8854 L29.4193,-42.8854M29.6928,-42.1872 L29.6928,-42.1872M29.9318,-41.4763 L29.9318,-41.4763M30.1357,-40.7547 L30.1357,-40.7547M30.304,-40.0239 L30.304,-40.0239M30.4363,-39.2857 L30.4363,-39.2857M30.5323,-38.542 L30.5323,-38.542M30.5917,-37.7944 L30.5917,-37.7944M30.6145,-37.0448 L30.6145,-37.0448" style="stroke:#000000;stroke-width:0.25;"/>
        <!-- Circle -->
        <path d="M-0.0003,-36.866 L-0.0003,-36.866M-0.0231,-36.1164 L-0.0231,-36.1164M-0.0825,-35.3688 L-0.0825,-35.3688M-0.1785,-34.6251 L-0.1785,-34.6251M-0.3107,-33.8869 L-0.3107,-33.8869M-0.479,-33.1561 L-0.479,-33.1561M-0.6829,-32.4344 L-0.6829,-32.4344M-0.9218,-31.7236 L-0.9218,-31.7236M-1.1953,-31.0253 L-1.1953,-31.0253M-1.5027,-30.3413 L-1.5027,-30.3413M-1.8432,-29.6731 L-1.8432,-29.6731M-2.216,-29.0224 L-2.216,-29.0224M-2.6202,-28.3907 L-2.6202,-28.3907M-3.0549,-27.7796 L-3.0549,-27.7796M-3.519,-27.1906 L-3.519,-27.1906M-4.0114,-26.6249 L-4.0114,-26.6249M-4.5309,-26.0841 L-4.5309,-26.0841M-5.0762,-25.5693 L-5.0762,-25.5693M-5.6462,-25.0819 L-5.6462,-25.0819M-6.2393,-24.623 L-6.2393,-24.623M-6.8541,-24.1937 L-6.8541,-24.1937M-7.4893,-23.795 L-7.4893,-23.795M-8.1432,-23.4279 L-8.1432,-23.4279M-8.8143,-23.0932 L-8.8143,-23.0932M-9.5011,-22.7919 L-9.5011,-22.7919M-10.2017,-22.5245 L-10.2017,-22.5245M-10.9146,-22.2917 L-10.9146,-22.2917M-11.638,-22.0942 L-11.638,-22.0942M-12.3703,-21.9323 L-12.3703,-21.9323M-13.1096,-21.8065 L-13.1096,-21.8065M-13.8541,-21.717 L-13.8541,-21.717M-14.6022,-21.6642 L-14.6022,-21.6642M-15.3519,-21.648 L-15.3519,-21.648M-16.1016,-21.6685 L-16.1016,-21.6685M-16.8493,-21.7258 L-16.8493,-21.7258M-17.5934,-21.8196 L-17.5934,-21.8196M-18.3319,-21.9497 L-18.3319,-21.9497M-19.0632,-22.1158 L-19.0632,-22.1158M-19.7855,-22.3176 L-19.7855,-22.3176M-20.497,-22.5545 L-20.497,-22.5545M-21.1961,-22.8259 L-21.1961,-22.8259M-21.881,-23.1313 L-21.881,-23.1313M-22.5502,-23.4699 L-22.5502,-23.4699M-23.2019,-23.8408 L-23.2019,-23.8408M-23.8348,-24.2432 L-23.8348,-24.2432M-24.4471,-24.6761 L-24.4471,-24.6761M-25.0376,-25.1384 L-25.0376,-25.1384M-25.6046,-25.6292 L-25.6046,-25.6292M-26.147,-26.1471 L-26.147,-26.1471M-26.6633,-26.6909 L-26.6633,-26.6909M-27.1524,-27.2594 L-27.1524,-27.2594M-27.613,-27.8512 L-27.613,-27.8512M-28.0442,-28.4648 L-28.0442,-28.4648M-28.4447,-29.0988 L-28.4447,-29.0988M-28.8137,-29.7517 L-28.8137,-29.7517M-29.1503,-30.4218 L-29.1503,-30.4218M-29.4537,-31.1076 L-29.4537,-31.1076M-29.7231,-31.8075 L-29.7231,-31.8075M-29.9579,-32.5197 L-29.9579,-32.5197M-30.1576,-33.2426 L-30.1576,-33.2426M-30.3216,-33.9743 L-30.3216,-33.9743M-30.4495,-34.7133 L-30.4495,-34.7133M-30.5412,-35.4576 L-30.5412,-35.4576M-30.5962,-36.2055 L-30.5962,-36.2055M-30.6146,-36.9552 L-30.6146,-36.9552M-30.5962,-37.7049 L-30.5962,-37.7049M-30.5412,-38.4528 L-30.5412,-38.4528M-30.4495,-39.1971 L-30.4495,-39.1971M-30.3216,-39.936 L-30.3216,-39.936M-30.1576,-40.6678 L-30.1576,-40.6678M-29.9579,-41.3906 L-29.9579,-41.3906M-29.7231,-42.1029 L-29.7231,-42.1029M-29.4537,-42.8027 L-29.4537,-42.8027M-29.1503,-43.4885 L-29.1503,-43.4885M-28.8137,-44.1587 L-28.8137,-44.1587M-28.4447,-44.8115 L-28.4447,-44.8115M-28.0442,-45.4455 L-28.0442,-45.4455M-27.613,-46.0592 L-27.613,-46.0592M-27.1524,-46.6509 L-27.1524,-46.6509M-26.6633,-47.2194 L-26.6633,-47.2194M-26.147,-47.7633 L-26.147,-47.7633M-25.6046,-48.2812 L-25.6046,-48.2812M-25.0376,-48.7719 L-25.0376,-48.7719M-24.4471,-49.2343 L-24.4471,-49.2343M-23.8348,-49.6672 L-23.8348,-49.6672M-23.2019,-50.0696 L-23.2019,-50.0696M-22.5502,-50.4405 L-22.5502,-50.4405M-21.881,-50.7791 L-21.881,-50.7791M-21.1961,-51.0844 L-21.1961,-51.0844M-20.497,-51.3559 L-20.497,-51.3559M-19.7855,-51.5928 L-19.7855,-51.5928M-19.0632,-51.7945 L-19.0632,-51.7945M-18.3319,-51.9607 L-18.3319,-51.9607M-17.5934,-52.0908 L-17.5934,-52.0908M-16.8493,-52.1846 L-16.8493,-52.1846M-16.1016,-52.2418 L-16.1016,-52.2418M-15.3519,-52.2624 L-15.3519,-52.2624M-14.6022,-52.2462 L-14.6022,-52.2462M-13.8541,-52.1933 L-13.8541,-52.1933M-13.1096,-52.1039 L-13.1096,-52.1039M-12.3703,-51.978 L-12.3703,-51.978M-11.638,-51.8162 L-11.638,-51.8162M-10.9146,-51.6186 L-10.9146,-51.6186M-10.2017,-51.3859 L-10.2017,-51.3859M-9.5011,-51.1185 L-9.5011,-51.1185M-8.8143,-50.8171 L-8.8143,-50.8171M-8.1432,-50.4825 L-8.1432,-50.4825M-7.4893,-50.1154 L-7.4893,-50.1154M-6.8541,-49.7167 L-6.8541,-49.7167M-6.2393,-49.2874 L-6.2393,-49.2874M-5.6462,-48.8284 L-5.6462,-48.8284M-5.0762,-48.341 L-5.0762,-48.341M-4.5309,-47.8263 L-4.5309,-47.8263M-4.0114,-47.2854 L-4.0114,-47.2854M-3.519,-46.7198 L-3.519,-46.7198M-3.0549,-46.1307 L-3.0549,-46.1307M-2.6202,-45.5196 L-2.6202,-45.5196M-2.216,-44.888 L-2.216,-44.888M-1.8432,-44.2373 L-1.8432,-44.2373M-1.5027,-43.5691 L-1.5027,-43.5691M-1.1953,-42.8851 L-1.1953,-42.8851M-0.9218,-42.1868 L-0.9218,-42.1868M-0.6829,-41.476 L-0.6829,-41.476M-0.479,-40.7543 L-0.479,-40.7543M-0.3107,-40.0235 L-0.3107,-40.0235M-0.1785,-39.2853 L-0.1785,-39.2853M-0.0825,-38.5415 L-0.0825,-38.5415M-0.0231,-37.794 L-0.0231,-37.794M-0.0003,-37.0444 L-0.0003,-37.0444" style="stroke:#000000;stroke-width:0.25;"/>
        <!-- Circle -->
        <path d="M-21.648,-15.2177 L-21.648,-15.2177M-21.6708,-14.4681 L-21.6708,-14.4681M-21.7302,-13.7206 L-21.7302,-13.7206M-21.8262,-12.9768 L-21.8262,-12.9768M-21.9585,-12.2386 L-21.9585,-12.2386M-22.1268,-11.5078 L-22.1268,-11.5078M-22.3307,-10.7862 L-22.3307,-10.7862M-22.5697,-10.0753 L-22.5697,-10.0753M-22.8432,-9.3771 L-22.8432,-9.3771M-23.1506,-8.693 L-23.1506,-8.693M-23.4911,-8.0249 L-23.4911,-8.0249M-23.8639,-7.3742 L-23.8639,-7.3742M-24.2681,-6.7425 L-24.2681,-6.7425M-24.7028,-6.1315 L-24.7028,-6.1315M-25.1669,-5.5424 L-25.1669,-5.5424M-25.6593,-4.9768 L-25.6593,-4.9768M-26.1788,-4.4359 L-26.1788,-4.4359M-26.7242,-3.9212 L-26.7242,-3.9212M-27.2941,-3.4338 L-27.2941,-3.4338M-27.8873,-2.9749 L-27.8873,-2.9749M-28.5021,-2.5456 L-28.5021,-2.5456M-29.1373,-2.1469 L-29.1373,-2.1469M-29.7912,-1.7798 L-29.7912,-1.7798M-30.4624,-1.4452 L-30.4624,-1.4452M-31.1491,-1.1438 L-31.1491,-1.1438M-31.8497,-0.8764 L-31.8497,-0.8764M-32.5626,-0.6437 L-32.5626,-0.6437M-33.2861,-0.4462 L-33.2861,-0.4462M-34.0183,-0.2843 L-34.0183,-0.2843M-34.7576,-0.1585 L-34.7576,-0.1585M-35.5022,-0.0691 L-35.5022,-0.0691M-36.2502,-0.0162 L-36.2502,-0.0162M-37,0 L-37,0M-37.7496,-0.0206 L-37.7496,-0.0206M-38.4974,-0.0778 L-38.4974,-0.0778M-39.2414,-0.1716 L-39.2414,-0.1716M-39.98,-0.3018 L-39.98,-0.3018M-40.7112,-0.4679 L-40.7112,-0.4679M-41.4335,-0.6697 L-41.4335,-0.6697M-42.145,-0.9066 L-42.145,-0.9066M-42.8441,-1.178 L-42.8441,-1.178M-43.529,-1.4834 L-43.529,-1.4834M-44.1982,-1.822 L-44.1982,-1.822M-44.85,-2.1929 L-44.85,-2.1929M-45.4828,-2.5953 L-45.4828,-2.5953M-46.0951,-3.0282 L-46.0951,-3.0282M-46.6856,-3.4906 L-46.6856,-3.4906M-47.2526,-3.9813 L-47.2526,-3.9813M-47.795,-4.4992 L-47.795,-4.4992M-48.3113,-5.0431 L-48.3113,-5.0431M-48.8004,-5.6116 L-48.8004,-5.6116M-49.261,-6.2034 L-49.261,-6.2034M-49.6922,-6.817 L-49.6922,-6.817M-50.0927,-7.451 L-50.0927,-7.451M-50.4617,-8.1038 L-50.4617,-8.1038M-50.7983,-8.774 L-50.7983,-8.774M-51.1017,-9.4598 L-51.1017,-9.4598M-51.3711,-10.1597 L-51.3711,-10.1597M-51.6059,-10.8719 L-51.6059,-10.8719M-51.8055,-11.5947 L-51.8055,-11.5947M-51.9695,-12.3265 L-51.9695,-12.3265M-52.0975,-13.0654 L-52.0975,-13.0654M-52.1891,-13.8097 L-52.1891,-13.8097M-52.2442,-14.5576 L-52.2442,-14.5576M-52.2626,-15.3073 L-52.2626,-15.3073M-52.2442,-16.057 L-52.2442,-16.057M-52.1891,-16.8049 L-52.1891,-16.8049M-52.0975,-17.5492 L-52.0975,-17.5492M-51.9695,-18.2882 L-51.9695,-18.2882M-51.8055,-19.0199 L-51.8055,-19.0199M-51.6059,-19.7428 L-51.6059,-19.7428M-51.3711,-20.455 L-51.3711,-20.455M-51.1017,-21.1549 L-51.1017,-21.1549M-50.7983,-21.8407 L-50.7983,-21.8407M-50.4617,-22.5108 L-50.4617,-22.5108M-50.0927,-23.1637 L-50.0927,-23.1637M-49.6922,-23.7977 L-49.6922,-23.7977M-49.261,-24.4113 L-49.261,-24.4113M-48.8004,-25.0031 L-48.8004,-25.0031M-48.3113,-25.5716 L-48.3113,-25.5716M-47.795,-26.1155 L-47.795,-26.1155M-47.2526,-26.6334 L-47.2526,-26.6334M-46.6856,-27.1241 L-46.6856,-27.1241M-46.0951,-27.5865 L-46.0951,-27.5865M-45.4828,-28.0194 L-45.4828,-28.0194M-44.85,-28.4218 L-44.85,-28.4218M-44.1982,-28.7927 L-44.1982,-28.7927M-43.529,-29.1313 L-43.529,-29.1313M-42.8441,-29.4366 L-42.8441,-29.4366M-42.145,-29.7081 L-42.145,-29.7081M-41.4335,-29.945 L-41.4335,-29.945M-40.7112,-30.1468 L-40.7112,-30.1468M-39.98,-30.3129 L-39.98,-30.3129M-39.2414,-30.443 L-39.2414,-30.443M-38.4974,-30.5369 L-38.4974,-30.5369M-37.7496,-30.5941 L-37.7496,-30.5941M-37,-30.6147 L-37,-30.6147M-36.2502,-30.5985 L-36.2502,-30.5985M-35.5022,-30.5456 L-35.5022,-30.5456M-34.7576,-30.4562 L-34.7576,-30.4562M-34.0183,-30.3304 L-34.0183,-30.3304M-33.2861,-30.1685 L-33.2861,-30.1685M-32.5626,-29.971 L-32.5626,-29.971M-31.8497,-29.7382 L-31.8497,-29.7382M-31.1491,-29.4709 L-31.1491,-29.4709M-30.4624,-29.1695 L-30.4624,-29.1695M-29.7912,-28.8349 L-29.7912,-28.8349M-29.1373,-28.4678 L-29.1373,-28.4678M-28.5021,-28.0691 L-28.5021,-28.0691M-27.8873,-27.6398 L-27.8873,-27.6398M-27.2941,-27.1809 L-27.2941,-27.1809M-26.7242,-26.6935 L-26.7242,-26.6935M-26.1788,-26.1787 L-26.1788,-26.1787M-25.6593,-25.6379 L-25.6593,-25.6379M-25.1669,-25.0723 L-25.1669,-25.0723M-24.7028,-24.4832 L-24.7028,-24.4832M-24.2681,-23.8721 L-24.2681,-23.8721M-23.8639,-23.2405 L-23.8639,-23.2405M-23.4911,-22.5898 L-23.4911,-22.5898M-23.1506,-21.9216 L-23.1506,-21.9216M-22.8432,-21.2376 L-22.8432,-21.2376M-22.5697,-20.5393 L-22.5697,-20.5393M-22.3307,-19.8285 L-22.3307,-19.8285M-22.1268,-19.1068 L-22.1268,-19.1068M-21.9585,-18.376 L-21.9585,-18.376M-21.8262,-17.6379 L-21.8262,-17.6379M-21.7302,-16.8941 L-21.7302,-16.8941M-21.6708,-16.1465 L-21.6708,-16.1465M-21.648,-15.397 L-21.648,-15.397" style="stroke:#000000;stroke-width:0.25;"/>
        <!-- Circle -->
        <path d="M-21.6482,15.3965 L-21.6482,15.3965M-21.6709,16.1461 L-21.6709,16.1461M-21.7303,16.8937 L-21.7303,16.8937M-21.8263,17.6375 L-21.8263,17.6375M-21.9586,18.3756 L-21.9586,18.3756M-22.1268,19.1064 L-22.1268,19.1064M-22.3307,19.8281 L-22.3307,19.8281M-22.5697,20.5389 L-22.5697,20.5389M-22.8432,21.2372 L-22.8432,21.2372M-23.1505,21.9213 L-23.1505,21.9213M-23.491,22.5894 L-23.491,22.5894M-23.8638,23.2401 L-23.8638,23.2401M-24.2681,23.8718 L-24.2681,23.8718M-24.7027,24.4829 L-24.7027,24.4829M-25.1668,25.0719 L-25.1668,25.0719M-25.6592,25.6376 L-25.6592,25.6376M-26.1787,26.1784 L-26.1787,26.1784M-26.7241,26.6932 L-26.7241,26.6932M-27.294,27.1806 L-27.294,27.1806M-27.8871,27.6395 L-27.8871,27.6395M-28.502,28.0688 L-28.502,28.0688M-29.1371,28.4675 L-29.1371,28.4675M-29.7911,28.8346 L-29.7911,28.8346M-30.4622,29.1693 L-30.4622,29.1693M-31.1489,29.4707 L-31.1489,29.4707M-31.8495,29.738 L-31.8495,29.738M-32.5624,29.9708 L-32.5624,29.9708M-33.2859,30.1683 L-33.2859,30.1683M-34.0181,30.3302 L-34.0181,30.3302M-34.7574,30.456 L-34.7574,30.456M-35.502,30.5455 L-35.502,30.5455M-36.25,30.5984 L-36.25,30.5984M-36.9998,30.6145 L-36.9998,30.6145M-37.7494,30.594 L-37.7494,30.594M-38.4972,30.5367 L-38.4972,30.5367M-39.2412,30.4429 L-39.2412,30.4429M-39.9798,30.3128 L-39.9798,30.3128M-40.711,30.1467 L-40.711,30.1467M-41.4333,29.9449 L-41.4333,29.9449M-42.1448,29.708 L-42.1448,29.708M-42.8439,29.4366 L-42.8439,29.4366M-43.5289,29.1312 L-43.5289,29.1312M-44.198,28.7927 L-44.198,28.7927M-44.8498,28.4217 L-44.8498,28.4217M-45.4826,28.0194 L-45.4826,28.0194M-46.095,27.5865 L-46.095,27.5865M-46.6854,27.1241 L-46.6854,27.1241M-47.2525,26.6333 L-47.2525,26.6333M-47.7948,26.1154 L-47.7948,26.1154M-48.3112,25.5716 L-48.3112,25.5716M-48.8002,25.0031 L-48.8002,25.0031M-49.2609,24.4113 L-49.2609,24.4113M-49.692,23.7977 L-49.692,23.7977M-50.0925,23.1637 L-50.0925,23.1637M-50.4616,22.5108 L-50.4616,22.5108M-50.7982,21.8407 L-50.7982,21.8407M-51.1015,21.1549 L-51.1015,21.1549M-51.3709,20.455 L-51.3709,20.455M-51.6058,19.7428 L-51.6058,19.7428M-51.8054,19.0199 L-51.8054,19.0199M-51.9694,18.2882 L-51.9694,18.2882M-52.0974,17.5492 L-52.0974,17.5492M-52.189,16.8049 L-52.189,16.8049M-52.2441,16.057 L-52.2441,16.057M-52.2625,15.3073 L-52.2625,15.3073M-52.2441,14.5576 L-52.2441,14.5576M-52.189,13.8097 L-52.189,13.8097M-52.0974,13.0654 L-52.0974,13.0654M-51.9694,12.3265 L-51.9694,12.3265M-51.8054,11.5947 L-51.8054,11.5947M-51.6058,10.8719 L-51.6058,10.8719M-51.3709,10.1597 L-51.3709,10.1597M-51.1015,9.4598 L-51.1015,9.4598M-50.7982,8.774 L-50.7982,8.774M-50.4616,8.1038 L-50.4616,8.1038M-50.0925,7.451 L-50.0925,7.451M-49.692,6.817 L-49.692,6.817M-49.2609,6.2034 L-49.2609,6.2034M-48.8002,5.6116 L-48.8002,5.6116M-48.3112,5.0431 L-48.3112,5.0431M-47.7948,4.4992 L-47.7948,4.4992M-47.2525,3.9813 L-47.2525,3.9813M-46.6854,3.4906 L-46.6854,3.4906M-46.095,3.0282 L-46.095,3.0282M-45.4826,2.5953 L-45.4826,2.5953M-44.8498,2.1929 L-44.8498,2.1929M-44.198,1.822 L-44.198,1.822M-43.5289,1.4835 L-43.5289,1.4835M-42.8439,1.1781 L-42.8439,1.1781M-42.1448,0.9066 L-42.1448,0.9066M-41.4333,0.6698 L-41.4333,0.6698M-40.711,0.468 L-40.711,0.468M-39.9798,0.3019 L-39.9798,0.3019M-39.2412,0.1717 L-39.2412,0.1717M-38.4972,0.0779 L-38.4972,0.0779M-37.7494,0.0207 L-37.7494,0.0207M-36.9998,0.0001 L-36.9998,0.0001M-36.25,0.0163 L-36.25,0.0163M-35.502,0.0692 L-35.502,0.0692M-34.7574,0.1587 L-34.7574,0.1587M-34.0181,0.2845 L-34.0181,0.2845M-33.2859,0.4464 L-33.2859,0.4464M-32.5624,0.6439 L-32.5624,0.6439M-31.8495,0.8766 L-31.8495,0.8766M-31.1489,1.144 L-31.1489,1.144M-30.4622,1.4454 L-30.4622,1.4454M-29.7911,1.78 L-29.7911,1.78M-29.1371,2.1471 L-29.1371,2.1471M-28.502,2.5458 L-28.502,2.5458M-27.8871,2.9752 L-27.8871,2.9752M-27.294,3.4341 L-27.294,3.4341M-26.7241,3.9215 L-26.7241,3.9215M-26.1787,4.4363 L-26.1787,4.4363M-25.6592,4.9771 L-25.6592,4.9771M-25.1668,5.5427 L-25.1668,5.5427M-24.7027,6.1318 L-24.7027,6.1318M-24.2681,6.7429 L-24.2681,6.7429M-23.8638,7.3746 L-23.8638,7.3746M-23.491,8.0252 L-23.491,8.0252M-23.1505,8.6934 L-23.1505,8.6934M-22.8432,9.3775 L-22.8432,9.3775M-22.5697,10.0757 L-22.5697,10.0757M-22.3307,10.7866 L-22.3307,10.7866M-22.1268,11.5082 L-22.1268,11.5082M-21.9586,12.2391 L-21.9586,12.2391M-21.8263,12.9772 L-21.8263,12.9772M-21.7303,13.721 L-21.7303,13.721M-21.6709,14.4685 L-21.6709,14.4685M-21.6482,15.2181 L-21.6482,15.2181" style="stroke:#000000;stroke-width:0.25;"/>
        <!-- Circle -->
        <path d="M15.307,0.0892 L15.307,0.0892M15.2843,0.8388 L15.2843,0.8388M15.2248,1.5864 L15.2248,1.5864M15.1289,2.3301 L15.1289,2.3301M14.9966,3.0683 L14.9966,3.0683M14.8283,3.7991 L14.8283,3.7991M14.6245,4.5208 L14.6245,4.5208M14.3855,5.2316 L14.3855,5.2316M14.112,5.9299 L14.112,5.9299M13.8047,6.6139 L13.8047,6.6139M13.4642,7.2821 L13.4642,7.2821M13.0914,7.9328 L13.0914,7.9328M12.6871,8.5644 L12.6871,8.5644M12.2524,9.1755 L12.2524,9.1755M11.7883,9.7646 L11.7883,9.7646M11.296,10.3302 L11.296,10.3302M10.7765,10.8711 L10.7765,10.8711M10.2311,11.3858 L10.2311,11.3858M9.6612,11.8733 L9.6612,11.8733M9.0681,12.3322 L9.0681,12.3322M8.4532,12.7615 L8.4532,12.7615M7.818,13.1602 L7.818,13.1602M7.1641,13.5273 L7.1641,13.5273M6.493,13.8619 L6.493,13.8619M5.8063,14.1633 L5.8063,14.1633M5.1056,14.4307 L5.1056,14.4307M4.3928,14.6634 L4.3928,14.6634M3.6693,14.861 L3.6693,14.861M2.9371,15.0229 L2.9371,15.0229M2.1978,15.1487 L2.1978,15.1487M1.4532,15.2381 L1.4532,15.2381M0.7051,15.291 L0.7051,15.291M-0.0446,15.3072 L-0.0446,15.3072M-0.7942,15.2867 L-0.7942,15.2867M-1.542,15.2294 L-1.542,15.2294M-2.286,15.1356 L-2.286,15.1356M-3.0246,15.0055 L-3.0246,15.0055M-3.7559,14.8393 L-3.7559,14.8393M-4.4781,14.6376 L-4.4781,14.6376M-5.1897,14.4007 L-5.1897,14.4007M-5.8887,14.1292 L-5.8887,14.1292M-6.5737,13.8239 L-6.5737,13.8239M-7.2428,13.4853 L-7.2428,13.4853M-7.8946,13.1144 L-7.8946,13.1144M-8.5274,12.712 L-8.5274,12.712M-9.1398,12.2791 L-9.1398,12.2791M-9.7302,11.8167 L-9.7302,11.8167M-10.2973,11.326 L-10.2973,11.326M-10.8396,10.8081 L-10.8396,10.8081M-11.356,10.2642 L-11.356,10.2642M-11.8451,9.6957 L-11.8451,9.6957M-12.3057,9.104 L-12.3057,9.104M-12.7368,8.4904 L-12.7368,8.4904M-13.1374,7.8564 L-13.1374,7.8564M-13.5064,7.2035 L-13.5064,7.2035M-13.843,6.5334 L-13.843,6.5334M-14.1463,5.8475 L-14.1463,5.8475M-14.4158,5.1477 L-14.4158,5.1477M-14.6506,4.4355 L-14.6506,4.4355M-14.8502,3.7126 L-14.8502,3.7126M-15.0142,2.9808 L-15.0142,2.9808M-15.1422,2.2419 L-15.1422,2.2419M-15.2338,1.4976 L-15.2338,1.4976M-15.2889,0.7497 L-15.2889,0.7497M-15.3073,0 L-15.3073,0M-15.2889,-0.7497 L-15.2889,-0.7497M-15.2338,-1.4976 L-15.2338,-1.4976M-15.1422,-2.2419 L-15.1422,-2.2419M-15.0142,-2.9808 L-15.0142,-2.9808M-14.8502,-3.7126 L-14.8502,-3.7126M-14.6506,-4.4355 L-14.6506,-4.4355M-14.4158,-5.1477 L-14.4158,-5.1477M-14.1463,-5.8475 L-14.1463,-5.8475M-13.843,-6.5334 L-13.843,-6.5334M-13.5064,-7.2035 L-13.5064,-7.2035M-13.1374,-7.8564 L-13.1374,-7.8564M-12.7368,-8.4904 L-12.7368,-8.4904M-12.3057,-9.104 L-12.3057,-9.104M-11.8451,-9.6957 L-11.8451,-9.6957M-11.356,-10.2642 L-11.356,-10.2642M-10.8396,-10.8081 L-10.8396,-10.8081M-10.2973,-11.326 L-10.2973,-11.326M-9.7302,-11.8167 L-9.7302,-11.8167M-9.1398,-12.2791 L-9.1398,-12.2791M-8.5274,-12.712 L-8.5274,-12.712M-7.8946,-13.1144 L-7.8946,-13.1144M-7.2428,-13.4853 L-7.2428,-13.4853M-6.5737,-13.8239 L-6.5737,-13.8239M-5.8887,-14.1292 L-5.8887,-14.1292M-5.1897,-14.4007 L-5.1897,-14.4007M-4.4781,-14.6376 L-4.4781,-14.6376M-3.7559,-14.8393 L-3.7559,-14.8393M-3.0246,-15.0055 L-3.0246,-15.0055M-2.286,-15.1356 L-2.286,-15.1356M-1.542,-15.2294 L-1.542,-15.2294M-0.7942,-15.2867 L-0.7942,-15.2867M-0.0446,-15.3072 L-0.0446,-15.3072M0.7051,-15.291 L0.7051,-15.291M1.4532,-15.2381 L1.4532,-15.2381M2.1978,-15.1487 L2.1978,-15.1487M2.9371,-15.0229 L2.9371,-15.0229M3.6693,-14.861 L3.6693,-14.861M4.3928,-14.6634 L4.3928,-14.6634M5.1056,-14.4307 L5.1056,-14.4307M5.8063,-14.1633 L5.8063,-14.1633M6.493,-13.8619 L6.493,-13.8619M7.1641,-13.5273 L7.1641,-13.5273M7.818,-13.1602 L7.818,-13.1602M8.4532,-12.7615 L8.4532,-12.7615M9.0681,-12.3322 L9.0681,-12.3322M9.6612,-11.8733 L9.6612,-11.8733M10.2311,-11.3858 L10.2311,-11.3858M10.7765,-10.8711 L10.7765,-10.8711M11.296,-10.3302 L11.296,-10.3302M11.7883,-9.7646 L11.7883,-9.7646M12.2524,-9.1755 L12.2524,-9.1755M12.6871,-8.5644 L12.6871,-8.5644M13.0914,-7.9328 L13.0914,-7.9328M13.4642,-7.2821 L13.4642,-7.2821M13.8047,-6.6139 L13.8047,-6.6139M14.112,-5.9299 L14.112,-5.9299M14.3855,-5.2316 L14.3855,-5.2316M14.6245,-4.5208 L14.6245,-4.5208M14.8283,-3.7991 L14.8283,-3.7991M14.9966,-3.0683 L14.9966,-3.0683M15.1289,-2.3301 L15.1289,-2.3301M15.2248,-1.5864 L15.2248,-1.5864M15.2843,-0.8388 L15.2843,-0.8388M15.307,-0.0892 L15.307,-0.0892" style="stroke:#000000;stroke-width:0.25;"/>
        <!-- Hatch -->
        <path d="M30.6146,36.9552 A15.3073,15.3073 0 0 1 0.0001,36.9552 A15.3073,15.3073 0 0 1 30.6146,36.9552" style="fill:#ff32ea;fill-rule:evenodd;"/>
        <!-- Hatch -->
        <path d="M52.2626,15.3073 A15.3074,15.3074 0 0 1 21.6478,15.3073 A15.3074,15.3074 0 0 1 52.2626,15.3073" style="fill:#ff1400;fill-rule:evenodd;"/>
        <!-- Hatch -->
        <path d="M52.2625,-15.3073 A15.3073,15.3073 0 0 1 21.6479,-15.3073 A15.3073,15.3073 0 0 1 52.2625,-15.3073" style="fill:#a1b3ff;fill-rule:evenodd;"/>
        <!-- Hatch -->
        <path d="M30.6147,-36.9552 A15.3074,15.3074 0 0 1 -0.0001,-36.9552 A15.3074,15.3074 0 0 1 30.6147,-36.9552" style="fill:#c800ff;fill-rule:evenodd;"/>
        <!-- Hatch -->
        <path d="M-0.0001,-36.9552 A15.3073,15.3073 0 0 1 -30.6146,-36.9552 A15.3073,15.3073 0 0 1 -0.0001,-36.9552" style="fill:#00c8ff;fill-rule:evenodd;"/>
        <!-- Hatch -->
        <path d="M-21.6478,-15.3073 A15.3074,15.3074 0 0 1 -52.2626,-15.3073 A15.3074,15.3074 0 0 1 -21.6478,-15.3073" style="fill:#bbb05f;fill-rule:evenodd;"/>
        <!-- Hatch -->
        <path d="M-21.6479,15.3073 A15.3073,15.3073 0 0 1 -52.2625,15.3073 A15.3073,15.3073 0 0 1 -21.6479,15.3073" style="fill:#6eff00;fill-rule:evenodd;"/>
        <!-- Hatch -->
        <path d="M0.0001,36.9552 A15.3074,15.3074 0 0 1 -30.6147,36.9552 A15.3074,15.3074 0 0 1 0.0001,36.9552" style="fill:#ffff40;fill-rule:evenodd;"/>
        <!-- Hatch -->
        <path d="M15.3073,0 A15.3073,15.3073 0 0 1 -15.3073,0 A15.3073,15.3073 0 0 1 15.3073,0" style="fill:#ff5a00;fill-rule:evenodd;"/>
    </g>
</svg>
